{"glyphs":{"0":{"ha":694,"x_min":56,"x_max":638,"o":"m 56 442 q 56 561 56 442 q 128 788 56 681 q 347 894 201 894 q 565 788 492 894 q 638 442 638 681 q 564 95 638 204 q 346 -14 490 -14 q 128 95 201 -14 q 56 442 56 204 m 346 113 q 456 182 422 113 q 490 442 490 251 q 456 700 490 633 q 346 767 422 767 q 238 701 269 767 q 206 473 206 635 q 222 238 206 311 q 267 139 238 165 q 346 113 296 113 z "},"1":{"ha":694,"x_min":58,"x_max":658,"o":"m 658 0 l 96 0 l 96 128 l 325 128 l 324 735 l 108 638 l 58 754 l 343 882 l 454 882 l 454 128 l 658 128 l 658 0 z "},"2":{"ha":694,"x_min":58,"x_max":650,"o":"m 617 638 q 583 494 617 560 q 497 383 549 429 q 394 299 447 338 q 235 135 260 197 l 650 135 l 650 0 l 74 0 l 74 124 q 154 253 101 193 q 258 356 206 314 l 361 436 q 471 638 472 528 q 435 733 471 699 q 344 767 399 767 q 244 744 289 767 q 129 672 199 721 l 58 776 q 199 858 122 824 q 333 893 275 893 q 536 828 456 893 q 617 638 617 764 z "},"3":{"ha":694,"x_min":54,"x_max":644,"o":"m 193 376 l 175 499 l 279 514 q 460 667 460 542 q 423 743 460 724 q 322 763 386 763 q 119 701 258 763 l 72 821 q 206 870 128 847 q 332 893 283 893 q 531 842 454 893 q 608 674 608 790 q 569 543 608 583 q 530 508 547 519 q 474 474 513 497 l 474 468 q 644 243 644 426 q 329 -14 644 -14 q 54 46 203 -14 l 99 169 q 329 117 235 117 q 493 238 493 117 q 340 394 493 394 l 193 376 z "},"4":{"ha":694,"x_min":51,"x_max":658,"o":"m 658 276 l 658 147 l 556 147 l 556 -14 l 418 -14 l 418 147 l 51 147 l 51 271 l 257 881 l 397 881 l 200 276 l 418 276 l 418 540 l 556 540 l 556 276 l 658 276 z "},"5":{"ha":694,"x_min":47,"x_max":650,"o":"m 365 590 q 580 508 510 590 q 650 289 650 425 q 561 69 650 153 q 338 -15 472 -15 q 47 49 203 -15 l 92 172 q 327 117 249 117 q 453 163 406 117 q 500 288 500 208 q 463 411 500 367 q 347 456 425 456 q 193 397 268 456 l 99 425 l 113 881 l 628 881 l 628 753 l 239 753 l 232 556 q 365 590 293 590 z "},"6":{"ha":694,"x_min":46,"x_max":657,"o":"m 384 565 q 436 565 384 565 q 573 491 489 565 q 657 279 657 417 q 574 63 657 142 q 354 -15 490 -15 q 132 70 218 -15 q 46 308 46 156 q 155 649 46 510 q 499 904 264 789 l 556 774 q 350 656 417 706 q 229 525 283 606 q 384 565 279 565 m 353 111 q 386 111 353 111 q 468 153 419 111 q 517 281 517 194 q 469 403 517 368 q 357 438 421 438 q 241 397 293 438 q 189 290 189 357 q 238 151 189 190 q 353 111 286 111 z "},"7":{"ha":694,"x_min":43,"x_max":628,"o":"m 43 678 l 79 881 l 628 881 l 628 753 q 569 628 619 717 l 469 447 q 374 229 418 356 q 326 0 329 103 l 185 0 q 224 229 185 107 q 311 440 264 351 l 406 619 q 460 753 453 710 l 185 753 l 163 672 l 43 678 z "},"8":{"ha":694,"x_min":54,"x_max":647,"o":"m 54 244 q 96 371 54 314 q 206 450 138 428 q 69 646 69 508 q 142 824 69 756 q 352 893 215 893 q 559 825 489 893 q 629 646 629 757 q 594 523 629 574 q 497 453 560 472 q 647 244 647 404 q 568 56 647 125 q 346 -14 489 -14 q 128 58 203 -14 q 54 244 54 131 m 351 388 q 314 388 351 388 q 239 349 278 388 q 200 247 200 311 q 240 147 200 183 q 351 110 279 110 q 463 146 424 110 q 501 247 501 182 q 463 350 501 313 q 351 388 424 388 m 247 738 q 230 721 247 738 q 213 646 213 704 q 247 549 213 588 q 350 511 281 511 q 453 548 419 511 q 488 646 488 585 q 350 772 488 772 q 247 738 281 772 z "},"9":{"ha":694,"x_min":64,"x_max":663,"o":"m 331 326 q 142 394 219 326 q 64 599 64 461 q 143 814 64 736 q 363 892 222 892 q 583 809 504 892 q 663 569 663 726 q 521 171 663 369 q 450 81 479 114 q 388 14 450 81 q 353 -24 354 -19 l 193 3 q 252 67 199 10 q 331 154 306 124 q 471 357 415 254 q 331 326 410 326 m 364 765 q 253 727 299 765 q 207 604 207 689 q 254 487 207 519 q 365 454 301 454 q 476 492 429 454 q 524 604 524 531 q 364 765 524 765 z "}," ":{"ha":694,"x_min":0,"x_max":0,"o":""},"!":{"ha":694,"x_min":271,"x_max":457,"o":"m 271 -8 l 271 182 l 457 182 l 457 -8 l 271 -8 m 296 261 l 281 910 l 446 910 l 429 261 l 296 261 z "},"\"":{"ha":694,"x_min":171,"x_max":522,"o":"m 171 643 l 171 944 l 293 944 l 293 643 l 171 643 m 400 643 l 400 944 l 522 944 l 522 643 l 400 643 z "},"#":{"ha":694,"x_min":0,"x_max":694,"o":"m 414 349 l 440 588 l 282 588 l 256 349 l 414 349 m 663 246 l 518 246 l 490 0 l 375 0 l 404 246 l 246 246 l 217 0 l 103 0 l 132 246 l 0 246 l 0 349 l 142 349 l 168 588 l 32 588 l 32 689 l 178 689 l 203 910 l 317 910 l 292 689 l 451 689 l 475 910 l 589 910 l 565 689 l 694 689 l 694 588 l 554 588 l 528 349 l 663 349 l 663 246 z "},"$":{"ha":694,"x_min":51,"x_max":626,"o":"m 626 243 q 393 -10 626 17 l 393 -128 l 254 -128 l 254 -10 q 53 32 164 -1 l 82 154 q 428 133 331 72 q 482 235 481 167 q 449 331 483 304 q 285 394 415 357 q 103 494 156 432 q 51 661 51 556 q 119 825 51 767 q 265 889 188 883 l 265 1007 l 406 1007 l 406 893 q 607 847 489 890 l 575 725 q 350 771 438 771 q 344 771 349 771 q 196 656 196 772 q 360 515 196 558 q 475 478 431 496 q 556 431 518 461 q 626 243 626 375 z "},"%":{"ha":694,"x_min":0,"x_max":693,"o":"m 465 924 l 596 924 l 225 0 l 94 0 l 465 924 m 49 597 q 24 622 49 597 q 0 729 0 646 q 49 861 0 813 q 171 910 97 910 q 293 861 244 910 q 342 729 342 813 q 293 597 342 646 q 171 549 244 549 q 49 597 97 549 m 239 728 q 239 767 239 728 q 171 806 239 806 q 103 728 103 806 q 171 651 103 651 q 239 728 239 651 m 400 49 q 376 73 400 49 q 351 181 351 97 q 400 313 351 264 q 522 361 449 361 q 644 313 596 361 q 693 181 693 264 q 644 49 693 97 q 522 0 596 0 q 400 49 449 0 m 472 236 q 462 226 472 236 q 453 178 453 217 q 472 119 453 139 q 522 99 490 99 q 572 119 553 99 q 590 178 590 139 q 522 256 590 256 q 472 236 490 256 z "},"&":{"ha":694,"x_min":6,"x_max":692,"o":"m 6 274 q 194 563 6 478 q 138 676 144 647 q 132 729 132 706 q 190 870 132 817 q 349 924 249 924 q 506 871 449 924 q 564 733 564 817 q 521 599 564 650 q 368 500 478 549 l 511 294 q 564 539 539 363 l 682 522 q 592 192 657 318 l 692 61 l 596 -14 q 518 90 556 36 q 286 -14 422 -14 q 78 58 150 -14 q 6 274 6 131 m 439 725 q 350 811 439 811 q 261 729 261 811 q 271 659 261 688 q 311 589 281 631 q 411 649 383 618 q 439 725 439 681 m 132 274 q 168 140 132 182 q 285 99 204 99 q 451 183 389 99 l 249 471 q 132 274 132 413 z "},"'":{"ha":694,"x_min":276,"x_max":399,"o":"m 276 643 l 276 944 l 399 944 l 399 643 l 276 643 z "},"(":{"ha":694,"x_min":242,"x_max":565,"o":"m 461 -236 q 297 76 351 -76 q 242 441 242 228 q 297 808 242 654 q 461 1119 353 961 l 565 1053 q 425 778 472 915 q 378 442 378 642 q 424 105 378 242 q 563 -167 471 -32 l 461 -236 z "},")":{"ha":694,"x_min":103,"x_max":426,"o":"m 244 105 q 267 173 244 105 q 290 442 290 242 q 243 778 290 642 q 103 1053 196 915 l 207 1119 q 371 808 315 961 q 426 442 426 656 q 372 76 426 228 q 207 -236 317 -76 l 106 -167 q 244 105 197 -32 z "},"*":{"ha":694,"x_min":97,"x_max":589,"o":"m 97 672 l 97 794 l 267 790 l 206 946 l 333 989 l 376 825 l 510 929 l 589 824 l 440 731 l 588 640 l 508 532 l 374 638 l 328 475 l 203 521 l 264 674 l 97 672 z "},"+":{"ha":694,"x_min":56,"x_max":640,"o":"m 640 326 l 417 326 l 417 99 l 278 99 l 278 326 l 56 326 l 56 460 l 278 460 l 278 686 l 417 686 l 417 460 l 640 460 l 640 326 z "},",":{"ha":694,"x_min":239,"x_max":438,"o":"m 240 0 l 240 201 l 438 201 l 438 42 q 324 -199 438 -85 l 239 -156 q 304 0 299 -74 l 240 0 z "},"-":{"ha":694,"x_min":153,"x_max":543,"o":"m 153 303 l 153 438 l 543 438 l 543 303 l 153 303 z "},".":{"ha":694,"x_min":243,"x_max":444,"o":"m 243 0 l 243 201 l 444 201 l 444 0 l 243 0 z "},"/":{"ha":694,"x_min":3,"x_max":692,"o":"m 3 -15 l 578 996 l 692 929 l 117 -83 l 3 -15 z "},":":{"ha":694,"x_min":243,"x_max":444,"o":"m 243 0 l 243 201 l 444 201 l 444 0 l 243 0 m 243 403 l 243 604 l 444 604 l 444 403 l 243 403 z "},";":{"ha":694,"x_min":239,"x_max":438,"o":"m 240 401 l 240 603 l 438 603 l 438 401 l 240 401 m 240 0 l 240 201 l 438 201 l 438 42 q 324 -199 438 -85 l 239 -156 q 304 0 299 -74 l 240 0 z "},"<":{"ha":694,"x_min":61,"x_max":647,"o":"m 647 647 l 186 401 l 639 167 l 571 46 l 61 310 l 61 486 l 583 764 l 647 647 z "},"=":{"ha":694,"x_min":49,"x_max":644,"o":"m 49 301 l 644 301 l 644 171 l 49 171 l 49 301 m 49 535 l 644 535 l 644 404 l 49 404 l 49 535 z "},">":{"ha":694,"x_min":61,"x_max":647,"o":"m 522 401 l 61 647 l 125 764 l 647 486 l 647 310 l 138 46 l 69 167 l 522 401 z "},"?":{"ha":694,"x_min":140,"x_max":621,"o":"m 271 -8 l 271 163 l 431 163 l 431 -8 l 271 -8 m 621 718 q 617 658 621 685 q 586 585 613 632 q 511 492 560 539 q 481 463 511 492 q 454 438 461 444 l 436 418 q 404 370 407 388 q 401 335 401 353 q 411 260 401 318 l 282 251 q 264 346 264 288 q 287 445 264 404 q 371 544 310 486 q 451 628 432 601 q 472 670 469 656 q 475 727 475 685 q 441 795 475 769 q 369 821 407 821 q 281 805 331 821 q 197 761 231 789 l 140 874 q 255 933 192 914 q 365 951 318 951 q 547 895 474 951 q 621 718 621 839 z "},"@":{"ha":694,"x_min":42,"x_max":644,"o":"m 42 297 q 142 613 42 499 q 422 726 242 726 q 539 715 483 726 q 619 693 594 704 l 644 682 l 644 54 q 448 18 564 18 q 285 83 332 18 q 238 290 238 149 q 290 493 238 432 q 449 554 343 554 q 522 547 488 554 l 522 621 q 422 629 482 629 q 231 544 303 629 q 158 283 158 458 q 428 -64 158 -64 q 617 -32 521 -64 l 642 -125 q 426 -160 540 -160 q 140 -50 238 -160 q 42 297 42 60 m 378 292 q 378 249 378 292 q 396 171 378 207 q 453 135 414 135 q 522 144 493 135 l 522 433 q 453 438 493 438 q 395 407 413 438 q 378 292 378 376 z "},"A":{"ha":694,"x_min":0,"x_max":694,"o":"m 0 0 l 221 910 l 481 910 l 694 0 l 542 0 l 499 174 l 190 174 l 150 0 l 0 0 m 468 303 l 365 781 l 335 781 l 219 303 l 468 303 z "},"B":{"ha":694,"x_min":63,"x_max":667,"o":"m 63 0 l 63 910 l 342 910 q 644 674 644 910 q 606 542 644 597 q 500 472 567 486 q 622 405 578 461 q 667 258 665 349 q 329 0 667 0 l 63 0 m 350 125 q 481 165 442 125 q 519 273 519 206 q 477 371 519 340 q 343 401 435 401 l 207 401 l 207 125 l 350 125 m 503 663 q 351 785 503 785 l 207 785 l 207 526 l 340 526 q 503 663 503 526 z "},"C":{"ha":694,"x_min":56,"x_max":644,"o":"m 619 149 l 644 28 q 406 -14 503 -14 q 251 8 310 -14 q 147 83 192 31 q 56 464 56 190 q 392 924 56 924 q 626 883 508 924 l 596 765 q 394 794 488 794 q 251 722 300 794 q 203 460 203 650 q 242 192 203 271 q 390 114 282 114 q 619 149 497 114 z "},"D":{"ha":694,"x_min":53,"x_max":647,"o":"m 53 0 l 53 910 l 269 910 q 447 892 379 910 q 561 824 514 874 q 628 685 608 774 q 647 435 647 597 q 608 175 647 274 q 489 38 568 76 q 267 0 410 0 l 53 0 m 444 185 q 460 203 444 185 q 488 284 476 221 q 500 456 500 347 q 490 628 500 565 q 449 727 481 690 q 372 774 418 764 q 242 785 326 785 l 197 785 l 197 125 l 239 125 q 366 137 319 125 q 444 185 413 149 z "},"E":{"ha":694,"x_min":83,"x_max":619,"o":"m 83 0 l 83 910 l 615 910 l 615 779 l 228 779 l 228 526 l 578 526 l 578 401 l 228 401 l 228 131 l 619 131 l 619 0 l 83 0 z "},"F":{"ha":694,"x_min":89,"x_max":622,"o":"m 89 0 l 89 910 l 622 910 l 622 779 l 233 779 l 233 471 l 565 471 l 565 346 l 233 346 l 233 0 l 89 0 z "},"G":{"ha":694,"x_min":31,"x_max":651,"o":"m 369 -12 q 112 97 193 -12 q 31 453 31 207 q 115 811 31 699 q 378 924 199 924 q 633 885 519 924 l 608 761 q 378 794 511 794 q 223 715 268 794 q 178 460 178 636 q 226 202 178 283 q 369 121 274 121 q 513 139 438 121 l 513 354 l 383 354 l 383 482 l 651 482 l 651 35 q 369 -12 519 -12 z "},"H":{"ha":694,"x_min":44,"x_max":651,"o":"m 44 0 l 44 910 l 190 910 l 190 518 l 506 518 l 506 910 l 651 910 l 651 0 l 506 0 l 506 388 l 190 388 l 190 0 l 44 0 z "},"I":{"ha":694,"x_min":100,"x_max":590,"o":"m 100 0 l 100 129 l 279 129 l 279 781 l 100 781 l 100 910 l 590 910 l 590 781 l 424 781 l 424 129 l 590 129 l 590 0 l 100 0 z "},"J":{"ha":694,"x_min":61,"x_max":546,"o":"m 460 779 l 460 299 q 426 47 460 110 q 272 -15 393 -15 q 61 22 194 -15 l 86 140 q 217 113 151 121 q 299 138 282 104 q 315 301 315 172 l 315 779 l 106 779 l 106 910 l 546 910 l 546 779 l 460 779 z "},"K":{"ha":694,"x_min":68,"x_max":667,"o":"m 500 910 l 657 910 q 407 468 517 632 q 511 289 447 406 l 667 0 l 510 0 q 294 390 369 271 l 208 382 l 208 0 l 68 0 l 68 910 l 208 910 l 208 514 l 283 525 q 468 847 375 667 l 500 910 z "},"L":{"ha":694,"x_min":94,"x_max":610,"o":"m 610 131 l 610 0 l 94 0 l 94 910 l 239 910 l 239 131 l 610 131 z "},"M":{"ha":694,"x_min":29,"x_max":665,"o":"m 29 0 l 29 910 l 167 910 l 342 435 l 353 435 l 528 910 l 665 910 l 665 0 l 535 0 l 539 615 l 533 615 l 415 308 l 279 308 l 161 615 l 156 615 l 160 0 l 29 0 z "},"N":{"ha":694,"x_min":43,"x_max":651,"o":"m 521 0 l 521 121 l 178 685 l 174 685 l 174 0 l 43 0 l 43 910 l 174 910 l 515 340 l 521 340 l 521 910 l 651 910 l 651 0 l 521 0 z "},"O":{"ha":694,"x_min":35,"x_max":660,"o":"m 349 -14 q 264 -14 349 -14 q 107 103 179 -14 q 35 460 35 219 q 109 813 35 701 q 351 924 183 924 q 589 814 518 924 q 660 458 660 704 q 589 99 660 211 q 349 -14 518 -14 m 346 117 q 394 117 346 117 q 478 188 443 117 q 513 460 513 260 q 478 726 513 660 q 351 793 444 793 q 219 721 257 793 q 182 463 182 649 q 215 197 182 278 q 346 117 249 117 z "},"P":{"ha":694,"x_min":63,"x_max":653,"o":"m 344 292 l 207 292 l 207 0 l 63 0 l 63 910 l 349 910 q 580 837 507 910 q 653 608 653 764 q 344 292 653 292 m 326 782 l 207 782 l 207 424 l 326 424 q 463 467 419 424 q 506 608 506 511 q 462 744 506 706 q 326 782 418 782 z "},"Q":{"ha":694,"x_min":35,"x_max":664,"o":"m 590 -101 l 493 15 q 347 -14 432 -14 q 108 101 181 -14 q 35 461 35 215 q 105 815 35 707 q 347 924 175 924 q 589 815 518 924 q 660 460 660 707 q 588 99 660 213 l 664 -6 l 590 -101 m 178 440 q 179 367 178 440 q 215 203 179 294 q 347 113 250 113 q 394 118 376 113 l 343 169 l 411 285 l 483 213 q 515 467 515 292 q 472 731 517 658 q 423 778 456 758 q 347 797 390 797 q 272 778 304 797 q 223 731 240 760 q 194 657 206 703 q 178 440 178 586 z "},"R":{"ha":694,"x_min":51,"x_max":650,"o":"m 344 332 q 261 328 269 328 l 196 328 l 196 0 l 51 0 l 51 910 l 338 910 q 567 842 489 910 q 644 618 644 775 q 489 364 644 438 q 650 0 585 182 l 494 0 q 344 332 432 168 m 310 782 l 196 782 l 196 461 l 311 461 q 497 618 497 461 q 453 744 497 706 q 310 782 408 782 z "},"S":{"ha":694,"x_min":58,"x_max":636,"o":"m 58 667 q 367 924 58 924 q 614 875 475 924 l 582 749 q 359 794 440 793 q 242 767 278 794 q 206 669 206 739 q 246 590 206 622 q 382 532 286 557 q 582 432 528 493 q 636 250 636 371 q 322 -12 636 -12 q 60 32 218 -12 l 89 164 q 132 151 89 163 q 341 117 267 117 q 452 154 415 117 q 489 249 489 192 q 458 336 489 306 q 343 390 426 367 q 126 493 193 432 q 58 667 58 554 z "},"T":{"ha":694,"x_min":39,"x_max":653,"o":"m 39 779 l 39 910 l 653 910 l 653 779 l 418 779 l 418 0 l 274 0 l 274 779 l 39 779 z "},"U":{"ha":694,"x_min":36,"x_max":657,"o":"m 36 306 l 36 910 l 182 910 l 182 322 q 217 167 182 215 q 344 118 250 118 q 475 165 439 118 q 511 322 511 213 l 511 910 l 657 910 l 657 306 q 587 65 657 143 q 342 -12 517 -12 q 101 67 167 -12 q 36 306 36 146 z "},"V":{"ha":694,"x_min":18,"x_max":679,"o":"m 18 910 l 181 910 l 351 146 l 518 910 l 679 910 l 457 0 l 243 0 l 18 910 z "},"W":{"ha":694,"x_min":0,"x_max":693,"o":"m 79 0 l 0 910 l 139 910 l 200 128 l 208 128 l 294 532 l 418 532 l 500 128 l 510 128 l 558 910 l 693 910 l 631 0 l 419 0 l 356 358 l 351 358 l 285 0 l 79 0 z "},"X":{"ha":694,"x_min":13,"x_max":674,"o":"m 331 347 l 183 0 l 13 0 l 236 467 l 24 910 l 197 910 l 338 576 l 343 576 l 482 910 l 651 910 l 438 467 l 674 0 l 497 0 l 335 347 l 331 347 z "},"Y":{"ha":694,"x_min":0,"x_max":694,"o":"m 419 393 l 419 0 l 275 0 l 275 393 l 0 910 l 161 910 l 342 528 l 353 528 l 533 910 l 694 910 l 419 393 z "},"Z":{"ha":694,"x_min":85,"x_max":628,"o":"m 89 779 l 89 910 l 607 910 l 607 796 l 267 131 l 628 131 l 628 0 l 85 0 l 85 99 l 433 779 l 89 779 z "},"[":{"ha":694,"x_min":231,"x_max":528,"o":"m 231 -217 l 231 1101 l 528 1101 l 528 971 l 376 971 l 376 -86 l 528 -86 l 528 -217 l 231 -217 z "},"\\":{"ha":694,"x_min":3,"x_max":692,"o":"m 3 929 l 117 996 l 692 -15 l 578 -83 l 3 929 z "},"]":{"ha":694,"x_min":167,"x_max":464,"o":"m 167 -217 l 167 -86 l 318 -86 l 318 971 l 167 971 l 167 1101 l 464 1101 l 464 -217 l 167 -217 z "},"_":{"ha":694,"x_min":0,"x_max":694,"o":"m 0 -244 l 0 -118 l 694 -118 l 694 -244 l 0 -244 z "},"a":{"ha":694,"x_min":56,"x_max":619,"o":"m 300 119 q 386 138 339 119 q 461 178 433 156 l 461 275 q 325 282 378 282 q 210 196 210 282 q 300 119 210 119 m 278 -15 q 56 196 56 -15 q 127 353 56 308 q 325 399 199 399 q 461 392 385 399 q 438 506 461 475 q 356 536 414 536 q 219 522 297 536 q 100 494 142 508 l 74 626 q 358 671 219 671 q 551 610 497 671 q 604 403 604 549 l 604 121 l 619 -1 l 476 -15 l 463 49 q 278 -15 346 -15 z "},"b":{"ha":694,"x_min":79,"x_max":656,"o":"m 79 0 l 79 926 l 222 926 l 222 611 q 383 671 308 671 q 592 587 528 671 q 656 325 656 503 q 577 66 656 147 q 369 -15 499 -15 q 221 28 310 -15 l 218 0 l 79 0 m 365 536 q 222 474 297 536 l 222 161 q 372 119 306 119 q 470 170 439 119 q 501 326 501 221 q 365 536 501 536 z "},"c":{"ha":694,"x_min":82,"x_max":599,"o":"m 599 646 l 578 513 q 400 538 486 538 q 275 490 314 538 q 236 336 236 442 q 269 174 236 231 q 396 118 303 118 q 578 143 489 118 l 599 10 q 392 -18 501 -18 q 82 328 82 -18 q 390 674 82 674 q 599 646 506 674 z "},"d":{"ha":694,"x_min":58,"x_max":647,"o":"m 633 926 l 633 115 l 647 0 l 507 -14 l 494 50 q 318 -15 404 -15 q 124 60 189 -15 q 58 317 58 136 q 138 584 58 497 q 343 671 217 671 q 492 639 417 671 l 492 926 l 633 926 m 328 118 q 492 193 401 118 l 492 503 q 350 538 419 538 q 213 317 213 538 q 328 118 213 118 z "},"e":{"ha":694,"x_min":68,"x_max":633,"o":"m 68 329 q 143 584 68 497 q 351 671 218 671 q 558 592 485 671 q 633 363 631 514 l 628 260 l 222 260 q 372 110 235 110 q 575 144 468 110 l 604 24 q 489 -3 560 8 q 372 -15 418 -15 q 68 329 68 -15 m 357 542 q 259 503 292 542 q 222 376 226 465 l 479 376 q 357 542 479 542 z "},"f":{"ha":694,"x_min":85,"x_max":628,"o":"m 226 535 l 90 535 l 90 660 l 226 660 q 276 878 226 813 q 447 944 326 944 q 628 921 529 944 l 606 794 q 461 814 519 814 q 384 779 403 814 q 365 660 365 744 l 603 660 l 603 535 l 365 535 l 365 125 l 606 125 l 606 0 l 85 0 l 85 125 l 226 125 l 226 535 z "},"g":{"ha":694,"x_min":57,"x_max":638,"o":"m 633 160 l 638 -32 q 557 -215 638 -151 q 339 -279 476 -279 q 72 -233 201 -279 l 107 -106 q 314 -147 232 -147 q 445 -119 396 -147 q 494 -33 494 -90 q 492 10 494 -22 q 490 61 490 43 q 318 -1 401 -1 q 124 78 190 -1 q 57 330 57 157 q 133 585 57 503 q 340 668 208 668 q 415 654 369 668 q 490 624 460 640 l 493 664 l 633 664 l 633 160 m 328 131 q 490 200 399 131 l 490 486 q 344 536 411 536 q 211 333 211 536 q 328 131 211 131 z "},"h":{"ha":694,"x_min":78,"x_max":615,"o":"m 221 486 l 221 0 l 78 0 l 78 926 l 221 926 l 221 621 q 397 671 333 671 q 566 601 517 671 q 615 399 615 532 l 615 0 l 472 0 l 472 401 q 449 498 472 460 q 389 536 426 536 q 221 486 321 536 z "},"i":{"ha":694,"x_min":132,"x_max":594,"o":"m 143 529 l 143 657 l 440 657 l 440 128 l 594 128 l 594 0 l 132 0 l 132 128 l 297 128 l 297 529 l 143 529 m 301 778 q 288 792 301 778 q 275 842 275 806 q 300 903 275 878 q 361 928 325 928 q 422 903 397 928 q 447 842 447 879 q 422 778 447 804 q 363 751 397 751 q 301 778 328 751 z "},"j":{"ha":694,"x_min":121,"x_max":496,"o":"m 489 660 l 489 -14 q 428 -203 489 -139 q 263 -275 381 -253 q 138 -293 160 -294 l 121 -160 q 304 -116 263 -139 q 346 -14 346 -93 l 346 535 l 183 535 l 183 660 l 489 660 m 411 765 q 392 765 411 765 q 349 792 374 765 q 324 855 324 819 q 349 916 324 890 q 411 942 374 942 q 472 917 449 942 q 496 855 496 892 q 472 792 496 818 q 411 765 449 765 z "},"k":{"ha":694,"x_min":107,"x_max":674,"o":"m 507 660 l 661 660 q 458 351 506 407 q 524 251 485 314 l 674 0 l 508 0 l 443 117 q 347 282 378 233 l 250 271 l 250 0 l 107 0 l 107 926 l 250 926 l 250 394 l 344 404 q 443 555 381 451 q 507 660 506 658 z "},"l":{"ha":694,"x_min":132,"x_max":588,"o":"m 138 799 l 136 925 l 432 926 l 432 125 l 588 125 l 588 0 l 132 0 l 132 125 l 289 125 l 289 800 l 138 799 z "},"m":{"ha":694,"x_min":32,"x_max":664,"o":"m 168 660 l 172 622 q 275 671 225 671 q 382 618 346 671 q 510 671 454 671 q 628 622 593 671 q 664 442 664 574 l 664 0 l 522 0 l 522 381 q 500 528 522 508 q 468 539 489 539 q 415 511 447 539 q 422 381 422 479 l 422 226 l 282 226 l 282 381 q 267 528 282 507 q 238 539 258 539 q 178 508 218 539 l 178 0 l 32 0 l 32 660 l 168 660 z "},"n":{"ha":694,"x_min":78,"x_max":615,"o":"m 217 660 l 219 619 q 396 671 332 671 q 562 605 508 671 q 615 399 615 539 l 615 0 l 472 0 l 472 394 q 449 499 472 461 q 375 536 425 536 q 221 488 325 536 l 221 0 l 78 0 l 78 660 l 217 660 z "},"o":{"ha":694,"x_min":58,"x_max":636,"o":"m 129 587 q 165 629 129 587 q 347 671 200 671 q 565 587 494 671 q 636 328 636 503 q 565 67 636 153 q 347 -18 494 -18 q 129 67 200 -18 q 58 328 58 153 q 129 587 58 503 m 241 488 q 227 463 241 488 q 213 328 213 439 q 242 167 213 217 q 347 117 271 117 q 453 167 424 117 q 482 328 482 217 q 453 488 482 439 q 347 536 425 536 q 241 488 269 536 z "},"p":{"ha":694,"x_min":71,"x_max":656,"o":"m 79 -267 l 79 540 l 71 660 l 210 669 l 218 608 q 383 671 311 671 q 590 588 524 671 q 656 331 656 506 q 575 70 656 156 q 346 -15 494 -15 q 222 14 296 -15 l 222 -267 l 79 -267 m 378 538 q 222 476 314 538 l 222 146 q 343 117 289 117 q 501 328 501 117 q 378 538 501 539 z "},"q":{"ha":694,"x_min":58,"x_max":635,"o":"m 635 668 l 635 -264 l 492 -264 l 492 40 q 408 1 458 17 q 325 -14 358 -14 q 123 67 188 -14 q 58 320 58 149 q 133 581 58 492 q 338 671 207 671 q 496 631 428 671 l 501 668 l 635 668 m 213 317 q 242 165 213 214 q 343 117 272 117 q 492 182 414 117 l 492 500 q 340 538 428 538 q 213 317 213 538 z "},"r":{"ha":694,"x_min":113,"x_max":614,"o":"m 113 532 l 113 660 l 363 660 l 365 593 q 481 641 410 618 q 614 671 553 664 l 614 532 q 485 503 560 526 q 365 454 410 479 l 365 125 l 568 125 l 568 0 l 113 0 l 113 128 l 219 128 l 219 532 l 113 532 z "},"s":{"ha":694,"x_min":88,"x_max":606,"o":"m 88 31 l 118 157 q 328 115 250 115 q 433 131 406 115 q 461 181 461 144 q 436 232 461 217 q 342 264 411 247 q 150 338 204 297 q 96 472 96 379 q 351 671 96 671 q 606 635 461 671 l 579 503 q 367 542 442 542 q 266 528 292 542 q 240 483 240 515 q 266 437 240 451 q 399 393 292 422 q 556 326 506 364 q 606 196 606 288 q 347 -14 606 -14 q 88 31 226 -14 z "},"t":{"ha":694,"x_min":89,"x_max":596,"o":"m 194 532 l 89 532 l 89 660 l 194 660 l 194 818 l 338 832 l 338 660 l 585 660 l 585 532 l 338 532 l 338 253 q 353 146 338 176 q 425 115 369 115 q 572 138 481 115 l 596 13 q 415 -15 490 -15 q 238 44 282 -15 q 194 253 194 104 l 194 532 z "},"u":{"ha":694,"x_min":74,"x_max":611,"o":"m 472 0 l 469 49 q 289 -14 358 -14 q 125 51 176 -14 q 74 257 74 115 l 74 660 l 217 660 l 217 265 q 310 122 217 122 q 468 179 383 122 l 468 660 l 611 660 l 611 0 l 472 0 z "},"v":{"ha":694,"x_min":46,"x_max":650,"o":"m 46 660 l 199 660 l 339 126 l 364 126 l 499 660 l 650 660 l 474 0 l 226 0 l 46 660 z "},"w":{"ha":694,"x_min":-3,"x_max":696,"o":"m 557 660 l 696 660 l 624 0 l 389 0 l 353 301 l 340 301 l 314 0 l 74 0 l -3 660 l 142 660 l 196 128 l 211 128 l 243 443 l 451 443 l 489 128 l 506 128 l 557 660 z "},"x":{"ha":694,"x_min":35,"x_max":661,"o":"m 42 661 l 221 661 l 347 439 l 472 661 l 647 661 l 446 335 l 661 -1 l 483 -1 l 347 228 l 213 -1 l 35 -1 l 253 335 l 42 661 z "},"y":{"ha":694,"x_min":40,"x_max":653,"o":"m 40 660 l 196 660 l 356 124 l 367 124 l 501 660 l 653 660 l 469 17 q 415 -141 440 -86 q 346 -231 390 -196 q 247 -275 301 -265 q 94 -286 193 -285 l 94 -157 q 219 -139 179 -157 q 275 -82 260 -121 l 283 -61 l 40 660 z "},"z":{"ha":694,"x_min":96,"x_max":593,"o":"m 113 532 l 113 660 l 583 660 l 592 544 l 296 128 l 593 128 l 593 0 l 107 0 l 96 100 l 399 532 l 113 532 z "},"{":{"ha":694,"x_min":144,"x_max":542,"o":"m 144 396 l 144 511 l 269 565 q 263 802 269 682 q 256 964 256 922 q 392 1101 256 1101 l 542 1101 l 542 990 l 449 990 q 394 977 408 990 q 379 922 379 964 q 386 751 379 881 q 393 506 393 621 l 274 458 l 274 447 l 393 401 q 386 157 393 299 q 379 -32 379 15 q 394 -92 379 -79 q 449 -106 410 -106 l 542 -106 l 542 -217 l 392 -217 q 256 -79 256 -217 q 263 105 256 -24 q 269 336 269 233 l 144 396 z "},"|":{"ha":694,"x_min":276,"x_max":419,"o":"m 419 1032 l 419 -339 l 276 -339 l 276 1032 l 419 1032 z "},"}":{"ha":694,"x_min":144,"x_max":542,"o":"m 144 -217 l 144 -106 l 238 -106 q 292 -92 276 -106 q 307 -32 307 -79 q 300 157 307 15 q 293 401 293 299 l 413 447 l 413 458 l 293 506 q 300 751 293 621 q 307 922 307 881 q 292 977 307 964 q 238 990 278 990 l 144 990 l 144 1101 l 294 1101 q 431 964 431 1101 q 424 802 431 922 q 417 565 417 682 l 542 511 l 542 396 l 417 336 q 424 105 417 233 q 431 -79 431 -24 q 294 -217 431 -217 l 144 -217 z "},"~":{"ha":694,"x_min":49,"x_max":651,"o":"m 560 461 l 651 392 q 468 268 558 268 q 337 315 414 269 q 242 361 260 361 q 131 288 190 361 l 49 360 q 240 485 146 485 q 367 440 296 485 q 464 396 439 396 q 510 411 489 396 q 560 461 531 426 z "},"¡":{"ha":694,"x_min":256,"x_max":442,"o":"m 442 697 l 442 507 l 256 507 l 256 697 l 442 697 m 417 428 l 432 -221 l 267 -221 l 283 428 l 417 428 z "},"¢":{"ha":694,"x_min":82,"x_max":599,"o":"m 82 329 q 139 563 82 482 q 314 663 196 644 l 314 763 l 456 763 l 456 664 q 578 646 528 658 l 594 642 l 563 513 q 387 539 474 539 q 264 492 300 539 q 228 333 228 446 q 267 168 228 221 q 392 115 306 115 q 578 140 478 115 l 599 17 q 456 -10 535 -3 l 456 -100 l 314 -100 l 314 -8 q 82 329 82 28 z "},"£":{"ha":694,"x_min":54,"x_max":646,"o":"m 64 407 l 64 532 l 139 532 q 107 656 107 603 q 179 852 107 779 q 393 925 251 925 q 579 899 478 925 l 557 776 q 392 799 475 799 q 244 656 244 799 q 269 532 244 575 l 540 532 l 540 407 l 318 407 q 343 309 343 358 q 313 218 343 260 q 251 154 282 176 l 221 132 l 225 126 q 313 147 288 147 q 392 128 338 147 q 479 108 446 108 q 586 138 542 108 l 600 147 l 646 35 q 479 -15 581 -15 q 382 3 442 -15 q 276 21 322 21 q 122 -6 197 22 l 97 -15 l 54 108 l 94 136 q 160 203 119 153 q 200 294 200 253 q 178 407 200 369 l 64 407 z "},"¤":{"ha":694,"x_min":14,"x_max":674,"o":"m 214 747 q 475 747 336 814 l 572 856 l 668 779 l 571 667 q 630 497 629 597 q 574 328 631 397 l 674 211 l 576 133 l 478 244 q 343 208 397 207 q 214 244 289 208 l 114 132 l 14 211 l 114 328 q 57 499 57 399 q 115 667 57 599 l 19 779 l 115 856 l 214 747 m 228 614 q 205 590 228 614 q 181 494 181 567 q 227 379 181 422 q 338 335 274 336 q 460 382 403 333 q 503 499 504 428 q 456 614 503 569 q 343 660 410 658 q 228 614 276 661 z "},"¥":{"ha":694,"x_min":-1,"x_max":693,"o":"m 69 529 l 228 529 l -1 910 l 164 910 l 349 576 l 536 910 l 693 910 l 465 529 l 624 529 l 624 404 l 418 404 l 418 331 l 624 331 l 624 206 l 418 206 l 418 0 l 276 0 l 276 206 l 69 206 l 69 331 l 276 331 l 276 404 l 69 404 l 69 529 z "},"¦":{"ha":694,"x_min":275,"x_max":418,"o":"m 418 272 l 418 -339 l 275 -339 l 275 272 l 418 272 m 418 1032 l 418 421 l 275 421 l 275 1032 l 418 1032 z "},"§":{"ha":694,"x_min":88,"x_max":600,"o":"m 96 467 q 149 578 96 522 q 88 732 88 628 q 360 932 88 932 q 569 892 449 932 l 539 772 q 360 809 436 808 q 258 793 285 810 q 231 739 231 776 q 255 679 231 701 q 357 635 279 657 q 544 554 496 596 q 592 438 592 513 q 551 319 592 363 q 600 188 600 281 q 531 41 600 96 q 341 -14 461 -14 q 100 22 221 -14 l 129 153 q 328 115 269 115 q 413 129 388 115 q 445 158 439 143 q 451 196 451 174 q 374 243 451 224 q 339 253 351 249 q 144 338 193 294 q 96 467 96 382 m 256 528 q 232 474 232 504 q 258 425 232 443 q 372 382 285 407 l 438 364 q 456 432 456 388 q 331 506 456 474 q 256 528 279 518 z "},"©":{"ha":694,"x_min":14,"x_max":681,"o":"m 342 -8 q 261 -8 342 -8 q 97 92 181 -8 q 14 377 14 193 q 100 662 14 561 q 349 763 186 763 q 681 375 681 763 q 592 88 681 185 q 342 -8 503 -8 m 99 375 q 163 146 99 217 q 349 75 226 75 q 532 143 471 75 q 593 376 593 211 q 535 610 593 540 q 350 679 476 679 q 99 375 99 679 m 363 176 q 224 220 267 176 q 182 377 182 264 q 220 539 182 490 q 351 588 258 588 q 476 565 410 588 l 454 478 q 360 494 404 494 q 301 470 317 494 q 285 380 285 446 q 301 292 285 314 q 364 269 318 269 q 439 282 392 269 l 454 286 l 476 199 q 363 176 419 176 z "},"ª":{"ha":694,"x_min":167,"x_max":521,"o":"m 167 633 q 209 734 167 704 q 335 764 251 764 q 403 760 374 764 q 390 810 401 796 q 350 824 381 824 q 269 814 319 824 q 193 794 219 804 l 174 892 q 358 922 275 922 q 476 885 442 922 q 511 753 511 847 l 511 589 l 521 507 l 414 496 l 407 526 q 307 497 357 497 q 167 633 167 497 m 335 671 q 278 633 278 671 q 319 596 278 596 q 403 629 361 596 l 403 668 q 335 671 364 671 z "},"«":{"ha":694,"x_min":42,"x_max":656,"o":"m 42 371 l 361 599 l 361 440 l 158 315 l 361 188 l 361 29 l 42 260 l 42 371 m 336 371 l 656 599 l 656 440 l 453 315 l 656 188 l 656 29 l 336 260 l 336 371 z "},"¬":{"ha":694,"x_min":50,"x_max":650,"o":"m 50 663 l 650 663 l 650 321 l 506 321 l 506 518 l 50 518 l 50 663 z "},"®":{"ha":694,"x_min":0,"x_max":694,"o":"m 348 267 q 268 267 348 267 q 94 360 188 267 q 0 613 0 454 q 94 865 0 772 q 349 957 188 957 q 602 868 510 957 q 694 615 694 779 q 601 358 694 450 q 348 267 508 267 m 347 879 q 215 879 347 879 q 83 613 83 879 q 347 346 83 346 q 610 613 610 346 q 347 879 610 879 m 217 432 l 217 810 l 324 810 q 452 781 408 810 q 496 676 496 753 q 432 572 496 600 q 489 454 458 532 l 497 432 l 406 432 q 346 557 379 501 l 301 557 l 301 432 l 217 432 m 315 629 q 388 639 369 629 q 407 683 407 649 q 389 724 407 717 q 319 731 371 731 l 301 731 l 301 629 l 315 629 z "},"°":{"ha":694,"x_min":150,"x_max":543,"o":"m 206 638 q 178 665 206 638 q 150 774 150 692 q 207 909 150 856 q 349 963 264 963 q 488 909 433 963 q 543 773 543 856 q 488 637 543 690 q 347 583 432 583 q 206 638 261 583 m 344 681 q 365 681 344 681 q 411 706 385 681 q 438 774 438 732 q 413 842 438 817 q 347 867 389 867 q 280 842 304 867 q 256 774 256 817 q 280 706 256 732 q 344 681 304 681 z "},"±":{"ha":694,"x_min":56,"x_max":639,"o":"m 639 379 l 417 379 l 417 203 l 278 203 l 278 379 l 56 379 l 56 508 l 278 508 l 278 697 l 417 697 l 417 508 l 639 508 l 639 379 m 639 26 l 56 26 l 56 154 l 639 154 l 639 26 z "},"µ":{"ha":694,"x_min":50,"x_max":617,"o":"m 78 -68 l 78 660 l 221 660 l 221 256 q 303 124 221 124 q 474 178 400 124 l 474 660 l 617 660 l 617 0 l 478 0 l 475 40 q 313 -14 364 -14 q 231 0 261 -14 q 190 29 200 14 l 203 -46 l 203 -75 q 154 -276 203 -196 l 50 -229 q 73 -158 68 -185 q 78 -68 78 -132 z "},"¶":{"ha":694,"x_min":57,"x_max":632,"o":"m 632 0 l 558 0 l 558 881 l 632 881 l 632 0 m 410 0 l 336 0 l 336 275 q 118 355 179 286 q 57 574 57 424 q 118 802 57 724 q 336 881 179 881 l 410 881 l 410 0 m 336 343 l 336 811 q 171 756 213 810 q 129 575 129 700 q 172 402 129 450 q 336 343 215 354 z "},"·":{"ha":694,"x_min":253,"x_max":435,"o":"m 277 340 q 265 353 277 340 q 253 417 253 367 q 277 497 253 467 q 344 526 301 526 q 411 497 388 526 q 435 417 435 468 q 343 313 435 313 q 277 340 301 313 z "},"º":{"ha":694,"x_min":149,"x_max":525,"o":"m 338 492 q 292 492 338 492 q 198 548 247 492 q 149 709 149 604 q 198 869 149 814 q 338 924 247 924 q 476 869 428 924 q 525 709 525 814 q 476 548 525 604 q 338 492 428 492 m 337 589 q 377 589 337 589 q 417 708 417 589 q 337 826 417 826 q 257 708 257 826 q 337 589 257 589 z "},"»":{"ha":694,"x_min":42,"x_max":656,"o":"m 336 599 l 656 371 l 656 260 l 336 29 l 336 188 l 539 315 l 336 440 l 336 599 m 42 599 l 361 371 l 361 260 l 42 29 l 42 188 l 244 315 l 42 440 l 42 599 z "},"¿":{"ha":694,"x_min":107,"x_max":588,"o":"m 457 679 l 457 508 l 297 508 l 297 679 l 457 679 m 107 -47 q 111 13 107 -14 q 142 85 115 39 q 217 179 168 132 q 247 208 217 179 q 274 233 267 226 l 292 253 q 324 301 321 283 q 326 335 326 318 q 317 411 326 353 l 446 419 q 464 325 464 383 q 441 226 464 267 q 357 127 418 185 q 277 42 296 69 q 256 1 258 15 q 253 -56 253 -14 q 287 -124 253 -99 q 359 -150 321 -150 q 447 -134 397 -150 q 531 -90 497 -118 l 588 -203 q 473 -262 536 -243 q 363 -281 410 -281 q 181 -224 254 -281 q 107 -47 107 -168 z "},"À":{"ha":694,"x_min":0,"x_max":694,"o":"m 217 1251 l 499 1129 l 454 1021 l 167 1138 l 217 1251 m 0 0 l 221 910 l 481 910 l 694 0 l 542 0 l 499 174 l 190 174 l 150 0 l 0 0 m 468 303 l 365 781 l 335 781 l 219 303 l 468 303 z "},"Á":{"ha":694,"x_min":0,"x_max":694,"o":"m 217 1128 l 501 1250 l 549 1136 l 263 1019 l 217 1128 m 0 0 l 221 910 l 481 910 l 694 0 l 542 0 l 499 174 l 190 174 l 150 0 l 0 0 m 468 303 l 365 781 l 335 781 l 219 303 l 468 303 z "},"Â":{"ha":694,"x_min":0,"x_max":694,"o":"m 121 1031 l 296 1225 l 407 1225 l 582 1031 l 446 1031 l 351 1142 l 257 1031 l 121 1031 m 0 0 l 221 910 l 481 910 l 694 0 l 542 0 l 499 174 l 190 174 l 150 0 l 0 0 m 468 303 l 365 781 l 335 781 l 219 303 l 468 303 z "},"Ã":{"ha":694,"x_min":0,"x_max":694,"o":"m 518 1208 l 575 1131 q 442 1057 507 1057 q 340 1086 393 1057 q 258 1117 289 1117 q 182 1074 228 1117 l 119 1150 q 267 1229 201 1229 q 367 1200 313 1229 q 450 1171 422 1171 q 518 1208 478 1171 m 0 0 l 221 910 l 481 910 l 694 0 l 542 0 l 499 174 l 190 174 l 150 0 l 0 0 m 468 303 l 365 781 l 335 781 l 219 303 l 468 303 z "},"Ä":{"ha":694,"x_min":0,"x_max":694,"o":"m 157 1072 q 146 1084 157 1072 q 135 1128 135 1096 q 158 1183 135 1160 q 213 1207 181 1207 q 267 1183 244 1207 q 290 1128 290 1160 q 268 1072 290 1096 q 213 1049 246 1049 q 157 1072 179 1049 m 425 1072 q 414 1084 425 1072 q 403 1128 403 1096 q 425 1183 403 1160 q 481 1207 447 1207 q 536 1183 514 1207 q 558 1128 558 1160 q 536 1072 558 1096 q 481 1049 514 1049 q 425 1072 447 1049 m 0 0 l 221 910 l 481 910 l 694 0 l 542 0 l 499 174 l 190 174 l 150 0 l 0 0 m 468 303 l 365 781 l 335 781 l 219 303 l 468 303 z "},"Å":{"ha":694,"x_min":0,"x_max":694,"o":"m 347 1290 q 384 1290 347 1290 q 467 1249 421 1290 q 513 1137 513 1207 q 467 1025 513 1067 q 347 983 421 983 q 226 1025 272 983 q 181 1137 181 1067 q 226 1249 181 1207 q 347 1290 272 1290 m 346 1199 q 311 1199 346 1199 q 276 1136 276 1199 q 346 1074 276 1074 q 415 1136 415 1074 q 346 1199 415 1199 m 0 0 l 221 910 l 481 910 l 694 0 l 542 0 l 499 174 l 190 174 l 150 0 l 0 0 m 468 303 l 365 781 l 335 781 l 219 303 l 468 303 z "},"Æ":{"ha":694,"x_min":0,"x_max":668,"o":"m 0 0 l 214 910 l 664 910 l 664 779 l 496 779 l 496 526 l 626 526 l 626 401 l 496 401 l 496 131 l 668 131 l 668 0 l 351 0 l 351 174 l 190 174 l 150 0 l 0 0 m 351 303 l 351 781 l 328 781 l 219 303 l 351 303 z "},"Ç":{"ha":694,"x_min":56,"x_max":644,"o":"m 363 -58 q 474 -97 431 -58 q 518 -206 518 -135 q 476 -317 518 -278 q 363 -357 435 -357 q 278 -347 333 -357 l 289 -260 q 353 -264 338 -264 q 415 -206 415 -264 q 401 -162 415 -175 q 353 -150 386 -150 l 294 -154 l 282 -69 q 363 -58 326 -58 m 619 149 l 644 28 q 406 -14 503 -14 q 251 8 310 -14 q 147 83 192 31 q 56 464 56 190 q 392 924 56 924 q 626 883 508 924 l 596 765 q 394 794 488 794 q 251 722 300 794 q 203 460 203 650 q 242 192 203 271 q 390 114 282 114 q 619 149 497 114 z "},"È":{"ha":694,"x_min":83,"x_max":619,"o":"m 229 1251 l 511 1129 l 467 1021 l 179 1138 l 229 1251 m 83 0 l 83 910 l 615 910 l 615 779 l 228 779 l 228 526 l 578 526 l 578 401 l 228 401 l 228 131 l 619 131 l 619 0 l 83 0 z "},"É":{"ha":694,"x_min":83,"x_max":619,"o":"m 194 1128 l 479 1250 l 526 1136 l 240 1019 l 194 1128 m 83 0 l 83 910 l 615 910 l 615 779 l 228 779 l 228 526 l 578 526 l 578 401 l 228 401 l 228 131 l 619 131 l 619 0 l 83 0 z "},"Ê":{"ha":694,"x_min":83,"x_max":619,"o":"m 121 1044 l 296 1225 l 407 1225 l 582 1044 l 446 1044 l 351 1142 l 257 1044 l 121 1044 m 83 0 l 83 910 l 615 910 l 615 779 l 228 779 l 228 526 l 578 526 l 578 401 l 228 401 l 228 131 l 619 131 l 619 0 l 83 0 z "},"Ë":{"ha":694,"x_min":83,"x_max":619,"o":"m 157 1072 q 146 1084 157 1072 q 135 1128 135 1096 q 158 1183 135 1160 q 213 1207 181 1207 q 267 1183 244 1207 q 290 1128 290 1160 q 268 1072 290 1096 q 213 1049 246 1049 q 157 1072 179 1049 m 425 1072 q 414 1084 425 1072 q 403 1128 403 1096 q 425 1183 403 1160 q 481 1207 447 1207 q 536 1183 514 1207 q 558 1128 558 1160 q 536 1072 558 1096 q 481 1049 514 1049 q 425 1072 447 1049 m 83 0 l 83 910 l 615 910 l 615 779 l 228 779 l 228 526 l 578 526 l 578 401 l 228 401 l 228 131 l 619 131 l 619 0 l 83 0 z "},"Ì":{"ha":694,"x_min":100,"x_max":590,"o":"m 221 1251 l 503 1129 l 458 1021 l 171 1138 l 221 1251 m 100 0 l 100 129 l 279 129 l 279 781 l 100 781 l 100 910 l 590 910 l 590 781 l 424 781 l 424 129 l 590 129 l 590 0 l 100 0 z "},"Í":{"ha":694,"x_min":100,"x_max":590,"o":"m 185 1128 l 469 1250 l 517 1136 l 231 1019 l 185 1128 m 100 0 l 100 129 l 279 129 l 279 781 l 100 781 l 100 910 l 590 910 l 590 781 l 424 781 l 424 129 l 590 129 l 590 0 l 100 0 z "},"Î":{"ha":694,"x_min":100,"x_max":590,"o":"m 121 1031 l 296 1225 l 407 1225 l 582 1031 l 446 1031 l 351 1142 l 257 1031 l 121 1031 m 100 0 l 100 129 l 279 129 l 279 781 l 100 781 l 100 910 l 590 910 l 590 781 l 424 781 l 424 129 l 590 129 l 590 0 l 100 0 z "},"Ï":{"ha":694,"x_min":100,"x_max":590,"o":"m 157 1072 q 146 1084 157 1072 q 135 1128 135 1096 q 158 1183 135 1160 q 213 1207 181 1207 q 267 1183 244 1207 q 290 1128 290 1160 q 268 1072 290 1096 q 213 1049 246 1049 q 157 1072 179 1049 m 425 1072 q 414 1084 425 1072 q 403 1128 403 1096 q 425 1183 403 1160 q 481 1207 447 1207 q 536 1183 514 1207 q 558 1128 558 1160 q 536 1072 558 1096 q 481 1049 514 1049 q 425 1072 447 1049 m 100 0 l 100 129 l 279 129 l 279 781 l 100 781 l 100 910 l 590 910 l 590 781 l 424 781 l 424 129 l 590 129 l 590 0 l 100 0 z "},"Ð":{"ha":694,"x_min":11,"x_max":647,"o":"m 69 0 l 69 375 l 11 375 l 11 510 l 69 510 l 69 910 l 269 910 q 447 892 379 910 q 561 824 514 874 q 628 685 608 774 q 647 435 647 597 q 608 175 647 274 q 489 38 568 76 q 267 0 410 0 l 69 0 m 444 185 q 460 203 444 185 q 488 284 476 221 q 500 456 500 347 q 490 628 500 565 q 449 727 481 690 q 372 774 418 764 q 242 785 326 785 l 214 785 l 214 510 l 340 510 l 340 375 l 214 375 l 214 125 l 239 125 q 366 137 319 125 q 444 185 413 149 z "},"Ñ":{"ha":694,"x_min":43,"x_max":651,"o":"m 518 1208 l 575 1131 q 442 1057 507 1057 q 340 1086 393 1057 q 258 1117 289 1117 q 182 1074 228 1117 l 119 1150 q 267 1229 201 1229 q 367 1200 313 1229 q 450 1171 422 1171 q 518 1208 478 1171 m 521 0 l 521 121 l 178 685 l 174 685 l 174 0 l 43 0 l 43 910 l 174 910 l 515 340 l 521 340 l 521 910 l 651 910 l 651 0 l 521 0 z "},"Ò":{"ha":694,"x_min":35,"x_max":660,"o":"m 233 1251 l 515 1129 l 471 1021 l 183 1138 l 233 1251 m 349 -14 q 264 -14 349 -14 q 107 103 179 -14 q 35 460 35 219 q 109 813 35 701 q 351 924 183 924 q 589 814 518 924 q 660 458 660 704 q 589 99 660 211 q 349 -14 518 -14 m 346 117 q 394 117 346 117 q 478 188 443 117 q 513 460 513 260 q 478 726 513 660 q 351 793 444 793 q 219 721 257 793 q 182 463 182 649 q 215 197 182 278 q 346 117 249 117 z "},"Ó":{"ha":694,"x_min":35,"x_max":660,"o":"m 204 1128 l 489 1250 l 536 1136 l 250 1019 l 204 1128 m 349 -14 q 264 -14 349 -14 q 107 103 179 -14 q 35 460 35 219 q 109 813 35 701 q 351 924 183 924 q 589 814 518 924 q 660 458 660 704 q 589 99 660 211 q 349 -14 518 -14 m 346 117 q 394 117 346 117 q 478 188 443 117 q 513 460 513 260 q 478 726 513 660 q 351 793 444 793 q 219 721 257 793 q 182 463 182 649 q 215 197 182 278 q 346 117 249 117 z "},"Ô":{"ha":694,"x_min":35,"x_max":660,"o":"m 121 1044 l 296 1225 l 407 1225 l 582 1044 l 446 1044 l 351 1142 l 257 1044 l 121 1044 m 349 -14 q 264 -14 349 -14 q 107 103 179 -14 q 35 460 35 219 q 109 813 35 701 q 351 924 183 924 q 589 814 518 924 q 660 458 660 704 q 589 99 660 211 q 349 -14 518 -14 m 346 117 q 394 117 346 117 q 478 188 443 117 q 513 460 513 260 q 478 726 513 660 q 351 793 444 793 q 219 721 257 793 q 182 463 182 649 q 215 197 182 278 q 346 117 249 117 z "},"Õ":{"ha":694,"x_min":35,"x_max":660,"o":"m 518 1208 l 575 1131 q 442 1057 507 1057 q 340 1087 393 1057 q 258 1117 288 1117 q 182 1074 228 1117 l 119 1150 q 267 1229 201 1229 q 367 1200 313 1229 q 449 1171 421 1171 q 518 1208 478 1171 m 349 -14 q 264 -14 349 -14 q 107 103 179 -14 q 35 460 35 219 q 109 813 35 701 q 351 924 183 924 q 589 814 518 924 q 660 458 660 704 q 589 99 660 211 q 349 -14 518 -14 m 346 117 q 394 117 346 117 q 478 188 443 117 q 513 460 513 260 q 478 726 513 660 q 351 793 444 793 q 219 721 257 793 q 182 463 182 649 q 215 197 182 278 q 346 117 249 117 z "},"Ö":{"ha":694,"x_min":35,"x_max":660,"o":"m 157 1072 q 146 1084 157 1072 q 135 1128 135 1096 q 158 1183 135 1160 q 213 1207 181 1207 q 267 1183 244 1207 q 290 1128 290 1160 q 268 1072 290 1096 q 213 1049 246 1049 q 157 1072 179 1049 m 425 1072 q 414 1084 425 1072 q 403 1128 403 1096 q 425 1183 403 1160 q 481 1207 447 1207 q 536 1183 514 1207 q 558 1128 558 1160 q 536 1072 558 1096 q 481 1049 514 1049 q 425 1072 447 1049 m 349 -14 q 264 -14 349 -14 q 107 103 179 -14 q 35 460 35 219 q 109 813 35 701 q 351 924 183 924 q 589 814 518 924 q 660 458 660 704 q 589 99 660 211 q 349 -14 518 -14 m 346 117 q 394 117 346 117 q 478 188 443 117 q 513 460 513 260 q 478 726 513 660 q 351 793 444 793 q 219 721 257 793 q 182 463 182 649 q 215 197 182 278 q 346 117 249 117 z "},"×":{"ha":694,"x_min":54,"x_max":632,"o":"m 533 125 l 343 315 l 154 125 l 56 221 l 246 413 l 54 603 l 156 699 l 343 510 l 533 697 l 632 603 l 442 413 l 631 222 l 533 125 z "},"Ø":{"ha":694,"x_min":35,"x_max":660,"o":"m 100 115 q 35 465 35 228 q 109 813 35 701 q 347 924 183 924 q 533 872 464 924 l 563 924 l 647 876 l 600 794 q 660 448 660 685 q 589 99 660 211 q 347 -14 518 -14 q 167 38 235 -14 l 138 -14 l 53 32 l 100 115 m 343 793 q 300 793 343 793 q 219 721 257 793 q 182 497 182 649 q 193 278 182 344 l 463 750 q 343 793 429 793 m 513 464 q 504 628 513 561 l 238 161 q 347 117 274 117 q 478 188 443 117 q 513 464 513 260 z "},"Ù":{"ha":694,"x_min":36,"x_max":657,"o":"m 218 1251 l 500 1129 l 456 1021 l 168 1138 l 218 1251 m 36 306 l 36 910 l 182 910 l 182 322 q 217 167 182 215 q 344 118 250 118 q 475 165 439 118 q 511 322 511 213 l 511 910 l 657 910 l 657 306 q 587 65 657 143 q 342 -12 517 -12 q 101 67 167 -12 q 36 306 36 146 z "},"Ú":{"ha":694,"x_min":36,"x_max":657,"o":"m 210 1128 l 494 1250 l 542 1136 l 256 1019 l 210 1128 m 36 306 l 36 910 l 182 910 l 182 322 q 217 167 182 215 q 344 118 250 118 q 475 165 439 118 q 511 322 511 213 l 511 910 l 657 910 l 657 306 q 587 65 657 143 q 342 -12 517 -12 q 101 67 167 -12 q 36 306 36 146 z "},"Û":{"ha":694,"x_min":36,"x_max":657,"o":"m 121 1044 l 296 1225 l 407 1225 l 582 1044 l 446 1044 l 351 1142 l 257 1044 l 121 1044 m 36 306 l 36 910 l 182 910 l 182 322 q 217 167 182 215 q 344 118 250 118 q 475 165 439 118 q 511 322 511 213 l 511 910 l 657 910 l 657 306 q 587 65 657 143 q 342 -12 517 -12 q 101 67 167 -12 q 36 306 36 146 z "},"Ü":{"ha":694,"x_min":36,"x_max":657,"o":"m 157 1072 q 146 1084 157 1072 q 135 1128 135 1096 q 158 1183 135 1160 q 213 1207 181 1207 q 267 1183 244 1207 q 290 1128 290 1160 q 268 1072 290 1096 q 213 1049 246 1049 q 157 1072 179 1049 m 425 1072 q 414 1084 425 1072 q 403 1128 403 1096 q 425 1183 403 1160 q 481 1207 447 1207 q 536 1183 514 1207 q 558 1128 558 1160 q 536 1072 558 1096 q 481 1049 514 1049 q 425 1072 447 1049 m 36 306 l 36 910 l 182 910 l 182 322 q 217 167 182 215 q 344 118 250 118 q 475 165 439 118 q 511 322 511 213 l 511 910 l 657 910 l 657 306 q 587 65 657 143 q 342 -12 517 -12 q 101 67 167 -12 q 36 306 36 146 z "},"Ý":{"ha":694,"x_min":0,"x_max":694,"o":"m 206 1082 l 457 1222 l 517 1101 l 261 981 l 206 1082 m 419 393 l 419 0 l 275 0 l 275 393 l 0 910 l 161 910 l 342 528 l 353 528 l 533 910 l 694 910 l 419 393 z "},"Þ":{"ha":694,"x_min":61,"x_max":590,"o":"m 199 160 l 199 0 l 61 0 l 61 910 l 199 910 l 199 764 l 311 764 q 452 731 390 764 q 545 644 514 697 q 590 526 576 590 q 588 398 604 463 q 540 280 572 333 q 447 193 508 226 q 308 160 385 160 l 199 160 m 283 639 l 199 639 l 199 285 l 281 285 q 383 322 342 285 q 435 410 425 358 q 435 513 444 461 q 385 602 426 565 q 283 639 344 639 z "},"ß":{"ha":694,"x_min":36,"x_max":672,"o":"m 36 0 l 36 651 q 113 851 36 779 q 332 924 189 924 q 610 718 610 924 l 610 553 q 426 532 490 546 q 383 486 383 522 q 399 434 383 450 q 468 396 414 418 q 636 305 600 343 q 672 175 672 267 q 618 35 672 83 q 443 -14 564 -14 q 235 14 322 -14 l 267 140 q 411 114 339 114 q 504 130 483 114 q 525 185 525 146 q 504 217 525 204 q 426 253 483 231 q 276 344 313 297 q 239 479 239 390 q 426 661 239 643 l 469 665 l 469 701 q 332 794 469 794 q 216 761 253 794 q 179 647 179 728 l 179 0 l 36 0 z "},"à":{"ha":694,"x_min":56,"x_max":619,"o":"m 300 119 q 386 138 339 119 q 461 178 433 156 l 461 275 q 325 282 378 282 q 210 196 210 282 q 300 119 210 119 m 278 -15 q 56 196 56 -15 q 127 353 56 308 q 325 399 199 399 q 461 392 385 399 q 438 506 461 475 q 356 536 414 536 q 219 522 297 536 q 100 494 142 508 l 74 626 q 358 671 219 671 q 551 610 497 671 q 604 403 604 549 l 604 121 l 619 -1 l 476 -15 l 463 49 q 278 -15 346 -15 m 251 1021 l 503 881 l 447 779 l 192 900 l 251 1021 z "},"á":{"ha":694,"x_min":56,"x_max":619,"o":"m 300 119 q 386 138 339 119 q 461 178 433 156 l 461 275 q 325 282 378 282 q 210 196 210 282 q 300 119 210 119 m 278 -15 q 56 196 56 -15 q 127 353 56 308 q 325 399 199 399 q 461 392 385 399 q 438 506 461 475 q 356 536 414 536 q 219 522 297 536 q 100 494 142 508 l 74 626 q 358 671 219 671 q 551 610 497 671 q 604 403 604 549 l 604 121 l 619 -1 l 476 -15 l 463 49 q 278 -15 346 -15 m 174 881 l 425 1021 l 485 900 l 229 779 l 174 881 z "},"â":{"ha":694,"x_min":56,"x_max":619,"o":"m 300 119 q 386 138 339 119 q 461 178 433 156 l 461 275 q 325 282 378 282 q 210 196 210 282 q 300 119 210 119 m 278 -15 q 56 196 56 -15 q 127 353 56 308 q 325 399 199 399 q 461 392 385 399 q 438 506 461 475 q 356 536 414 536 q 219 522 297 536 q 100 494 142 508 l 74 626 q 358 671 219 671 q 551 610 497 671 q 604 403 604 549 l 604 121 l 619 -1 l 476 -15 l 463 49 q 278 -15 346 -15 m 413 1035 l 563 817 l 421 817 l 347 936 l 274 817 l 132 817 l 282 1035 l 413 1035 z "},"ã":{"ha":694,"x_min":56,"x_max":619,"o":"m 300 119 q 386 138 339 119 q 461 178 433 156 l 461 275 q 325 282 378 282 q 210 196 210 282 q 300 119 210 119 m 278 -15 q 56 196 56 -15 q 127 353 56 308 q 325 399 199 399 q 461 392 385 399 q 438 506 461 475 q 356 536 414 536 q 219 522 297 536 q 100 494 142 508 l 74 626 q 358 671 219 671 q 551 610 497 671 q 604 403 604 549 l 604 121 l 619 -1 l 476 -15 l 463 49 q 278 -15 346 -15 m 500 979 l 557 901 q 424 828 489 828 q 322 858 375 828 q 239 888 269 888 q 164 844 208 888 l 101 921 q 249 1000 183 1000 q 349 971 294 1000 q 431 942 403 942 q 500 979 458 942 z "},"ä":{"ha":694,"x_min":56,"x_max":619,"o":"m 300 119 q 386 138 339 119 q 461 178 433 156 l 461 275 q 325 282 378 282 q 210 196 210 282 q 300 119 210 119 m 278 -15 q 56 196 56 -15 q 127 353 56 308 q 325 399 199 399 q 461 392 385 399 q 438 506 461 475 q 356 536 414 536 q 219 522 297 536 q 100 494 142 508 l 74 626 q 358 671 219 671 q 551 610 497 671 q 604 403 604 549 l 604 121 l 619 -1 l 476 -15 l 463 49 q 278 -15 346 -15 m 157 843 q 146 855 157 843 q 135 899 135 867 q 158 954 135 931 q 213 978 181 978 q 267 954 244 978 q 290 899 290 931 q 268 843 290 867 q 213 819 246 819 q 157 843 179 819 m 425 843 q 414 855 425 843 q 403 899 403 867 q 425 954 403 931 q 481 978 447 978 q 536 954 514 978 q 558 899 558 931 q 536 843 558 867 q 481 819 514 819 q 425 843 447 819 z "},"å":{"ha":694,"x_min":56,"x_max":619,"o":"m 300 119 q 386 138 339 119 q 461 178 433 156 l 461 275 q 325 282 378 282 q 210 196 210 282 q 300 119 210 119 m 278 -15 q 56 196 56 -15 q 127 353 56 308 q 325 399 199 399 q 461 392 385 399 q 438 506 461 475 q 356 536 414 536 q 219 522 297 536 q 100 494 142 508 l 74 626 q 358 671 219 671 q 550 610 496 671 q 604 403 604 549 l 604 121 l 619 -1 l 476 -15 l 463 49 q 278 -15 346 -15 m 347 1026 q 384 1026 347 1026 q 467 985 421 1026 q 513 873 513 943 q 467 761 513 803 q 347 719 421 719 q 226 761 272 719 q 181 873 181 803 q 226 985 181 943 q 347 1026 272 1026 m 346 935 q 311 935 346 935 q 276 872 276 935 q 346 810 276 810 q 415 872 415 810 q 346 935 415 935 z "},"æ":{"ha":694,"x_min":26,"x_max":674,"o":"m 354 63 q 281 3 314 19 q 181 -14 249 -14 q 70 40 114 -14 q 26 184 26 93 q 78 334 26 275 q 217 393 131 393 l 283 393 q 272 530 283 499 q 222 561 261 561 q 82 524 164 561 l 47 611 q 213 660 147 660 q 309 647 278 660 q 360 590 340 633 q 497 667 403 667 q 632 597 590 667 q 674 374 674 526 l 669 279 l 415 279 q 438 136 417 185 q 515 86 460 88 q 617 107 550 86 l 639 114 l 668 21 q 519 -14 578 -14 q 428 1 461 -14 q 354 63 394 15 m 286 142 l 286 279 l 217 279 q 155 255 178 279 q 132 186 132 231 q 194 85 132 85 q 249 99 226 85 q 279 128 272 114 l 286 142 m 561 392 q 547 526 561 489 q 494 563 533 563 q 434 526 454 563 q 413 392 414 490 l 561 392 z "},"ç":{"ha":694,"x_min":82,"x_max":599,"o":"m 453 419 l 453 533 q 390 539 421 539 q 270 489 304 539 q 236 331 236 439 q 272 171 236 224 q 396 118 307 118 q 578 143 485 118 l 599 10 q 390 -18 501 -18 q 82 329 82 -18 q 152 591 82 508 q 386 674 222 674 q 589 647 492 674 l 589 419 l 453 419 m 369 -58 q 481 -97 438 -58 q 525 -206 525 -135 q 483 -317 525 -278 q 369 -357 442 -357 q 285 -347 340 -357 l 296 -260 q 360 -264 344 -264 q 422 -206 422 -264 q 408 -162 422 -175 q 360 -150 393 -150 l 301 -154 l 289 -69 q 369 -58 333 -58 z "},"è":{"ha":694,"x_min":68,"x_max":633,"o":"m 68 329 q 143 584 68 497 q 351 671 218 671 q 558 592 485 671 q 633 363 631 514 l 628 260 l 222 260 q 372 110 235 110 q 575 144 468 110 l 604 24 q 489 -3 560 8 q 372 -15 418 -15 q 68 329 68 -15 m 357 542 q 259 503 292 542 q 222 376 226 465 l 479 376 q 357 542 479 542 m 251 1021 l 503 881 l 447 779 l 192 900 l 251 1021 z "},"é":{"ha":694,"x_min":68,"x_max":633,"o":"m 68 329 q 143 584 68 497 q 351 671 218 671 q 558 592 485 671 q 633 363 631 514 l 628 260 l 222 260 q 372 110 235 110 q 575 144 468 110 l 604 24 q 489 -3 560 8 q 372 -15 418 -15 q 68 329 68 -15 m 357 542 q 259 503 292 542 q 222 376 226 465 l 479 376 q 357 542 479 542 m 185 881 l 436 1021 l 496 900 l 240 779 l 185 881 z "},"ê":{"ha":694,"x_min":68,"x_max":633,"o":"m 68 329 q 143 584 68 497 q 351 671 218 671 q 558 592 485 671 q 633 363 631 514 l 628 260 l 222 260 q 372 110 235 110 q 575 144 468 110 l 604 24 q 489 -3 560 8 q 372 -15 418 -15 q 68 329 68 -15 m 357 542 q 259 503 292 542 q 222 376 226 465 l 479 376 q 357 542 479 542 m 413 1035 l 563 817 l 421 817 l 347 936 l 274 817 l 132 817 l 282 1035 l 413 1035 z "},"ë":{"ha":694,"x_min":68,"x_max":633,"o":"m 68 329 q 143 584 68 497 q 351 671 218 671 q 558 592 485 671 q 633 363 631 514 l 628 260 l 222 260 q 372 110 235 110 q 575 144 468 110 l 604 24 q 489 -3 560 8 q 372 -15 418 -15 q 68 329 68 -15 m 357 542 q 259 503 292 542 q 222 376 226 465 l 479 376 q 357 542 479 542 m 157 843 q 146 855 157 843 q 135 899 135 867 q 158 954 135 931 q 213 978 181 978 q 267 954 244 978 q 290 899 290 931 q 268 843 290 867 q 213 819 246 819 q 157 843 179 819 m 425 843 q 414 855 425 843 q 403 899 403 867 q 425 954 403 931 q 481 978 447 978 q 536 954 514 978 q 558 899 558 931 q 536 843 558 867 q 481 819 514 819 q 425 843 447 819 z "},"ì":{"ha":694,"x_min":132,"x_max":594,"o":"m 200 881 l 451 1021 l 511 900 l 256 779 l 200 881 m 143 529 l 143 657 l 440 657 l 440 128 l 594 128 l 594 0 l 132 0 l 132 128 l 297 128 l 297 529 l 143 529 z "},"í":{"ha":694,"x_min":132,"x_max":594,"o":"m 143 529 l 143 657 l 440 657 l 440 128 l 594 128 l 594 0 l 132 0 l 132 128 l 297 128 l 297 529 l 143 529 m 192 881 l 443 1021 l 503 900 l 247 779 l 192 881 z "},"î":{"ha":694,"x_min":132,"x_max":594,"o":"m 143 529 l 143 657 l 440 657 l 440 128 l 594 128 l 594 0 l 132 0 l 132 128 l 297 128 l 297 529 l 143 529 m 413 1035 l 563 817 l 421 817 l 347 936 l 274 817 l 132 817 l 282 1035 l 413 1035 z "},"ï":{"ha":694,"x_min":132,"x_max":594,"o":"m 171 843 q 160 855 171 843 q 149 899 149 867 q 172 954 149 931 q 226 978 194 978 q 281 954 258 978 q 304 899 304 931 q 282 843 304 867 q 226 819 260 819 q 171 843 193 819 m 425 843 q 414 855 425 843 q 403 899 403 867 q 425 954 403 931 q 481 978 447 978 q 536 954 514 978 q 558 899 558 931 q 536 843 558 867 q 481 819 514 819 q 425 843 447 819 m 143 529 l 143 657 l 440 657 l 440 128 l 594 128 l 594 0 l 132 0 l 132 128 l 297 128 l 297 529 l 143 529 z "},"ð":{"ha":694,"x_min":58,"x_max":635,"o":"m 365 772 l 275 692 l 203 761 l 283 838 q 192 890 238 868 l 253 994 q 374 921 315 961 l 460 1003 l 536 926 l 457 854 q 592 653 550 767 q 635 383 635 540 q 566 76 635 169 q 347 -18 497 -18 q 128 67 197 -18 q 58 328 58 153 q 128 582 58 503 q 347 661 199 661 q 457 649 408 661 q 365 772 425 714 m 241 488 q 227 463 241 488 q 213 328 213 439 q 242 167 213 217 q 347 117 271 117 q 453 167 424 117 q 482 328 482 217 q 453 488 482 439 q 347 536 425 536 q 241 488 269 536 z "},"ñ":{"ha":694,"x_min":81,"x_max":618,"o":"m 219 660 l 222 619 q 399 671 335 671 q 565 605 511 671 q 618 399 618 539 l 618 0 l 475 0 l 475 394 q 451 499 475 461 q 378 536 428 536 q 224 488 328 536 l 224 0 l 81 0 l 81 660 l 219 660 m 518 979 l 575 901 q 442 828 507 828 q 340 858 393 828 q 258 888 289 888 q 182 844 228 888 l 119 921 q 267 1000 201 1000 q 367 971 313 1000 q 450 942 422 942 q 518 979 478 942 z "},"ò":{"ha":694,"x_min":58,"x_max":636,"o":"m 129 587 q 165 629 129 587 q 347 671 200 671 q 565 587 494 671 q 636 328 636 503 q 565 67 636 153 q 347 -18 494 -18 q 129 67 200 -18 q 58 328 58 153 q 129 587 58 503 m 241 488 q 227 463 241 488 q 213 328 213 439 q 242 167 213 217 q 347 117 271 117 q 453 167 424 117 q 482 328 482 217 q 453 488 482 439 q 347 536 425 536 q 241 488 269 536 m 251 1021 l 503 881 l 447 779 l 192 900 l 251 1021 z "},"ó":{"ha":694,"x_min":58,"x_max":636,"o":"m 129 587 q 165 629 129 587 q 347 671 200 671 q 565 587 494 671 q 636 328 636 503 q 565 67 636 153 q 347 -18 494 -18 q 129 67 200 -18 q 58 328 58 153 q 129 587 58 503 m 241 488 q 227 463 241 488 q 213 328 213 439 q 242 167 213 217 q 347 117 271 117 q 453 167 424 117 q 482 328 482 217 q 453 488 482 439 q 347 536 425 536 q 241 488 269 536 m 196 881 l 447 1021 l 507 900 l 251 779 l 196 881 z "},"ô":{"ha":694,"x_min":58,"x_max":636,"o":"m 129 587 q 165 629 129 587 q 347 671 200 671 q 565 587 494 671 q 636 328 636 503 q 565 67 636 153 q 347 -18 494 -18 q 129 67 200 -18 q 58 328 58 153 q 129 587 58 503 m 241 488 q 227 463 241 488 q 213 328 213 439 q 242 167 213 217 q 347 117 271 117 q 453 167 424 117 q 482 328 482 217 q 453 488 482 439 q 347 536 425 536 q 241 488 269 536 m 413 1035 l 563 817 l 421 817 l 347 936 l 274 817 l 132 817 l 282 1035 l 413 1035 z "},"õ":{"ha":694,"x_min":58,"x_max":636,"o":"m 129 587 q 165 629 129 587 q 347 671 200 671 q 565 587 494 671 q 636 328 636 503 q 565 67 636 153 q 347 -18 494 -18 q 129 67 200 -18 q 58 328 58 153 q 129 587 58 503 m 241 488 q 227 463 241 488 q 213 328 213 439 q 242 167 213 217 q 347 117 271 117 q 453 167 424 117 q 482 328 482 217 q 453 488 482 439 q 347 536 425 536 q 241 488 269 536 m 519 979 l 576 901 q 443 828 508 828 q 342 858 394 828 q 258 888 289 888 q 183 844 228 888 l 121 921 q 268 1000 203 1000 q 368 971 314 1000 q 450 942 422 942 q 519 979 478 942 z "},"ö":{"ha":694,"x_min":58,"x_max":636,"o":"m 129 587 q 165 629 129 587 q 347 671 200 671 q 565 587 494 671 q 636 328 636 503 q 565 67 636 153 q 347 -18 494 -18 q 129 67 200 -18 q 58 328 58 153 q 129 587 58 503 m 241 488 q 227 463 241 488 q 213 328 213 439 q 242 167 213 217 q 347 117 271 117 q 453 167 424 117 q 482 328 482 217 q 453 488 482 439 q 347 536 425 536 q 241 488 269 536 m 157 843 q 146 855 157 843 q 135 899 135 867 q 158 954 135 931 q 213 978 181 978 q 267 954 244 978 q 290 899 290 931 q 268 843 290 867 q 213 819 246 819 q 157 843 179 819 m 425 843 q 414 855 425 843 q 403 899 403 867 q 425 954 403 931 q 481 978 447 978 q 536 954 514 978 q 558 899 558 931 q 536 843 558 867 q 481 819 514 819 q 425 843 447 819 z "},"÷":{"ha":694,"x_min":76,"x_max":618,"o":"m 281 116 q 269 127 281 116 q 258 181 258 139 q 281 248 258 222 q 343 274 304 274 q 405 248 382 274 q 428 181 428 222 q 406 116 428 139 q 343 93 383 93 q 281 116 303 93 m 281 537 q 269 548 281 537 q 258 601 258 560 q 281 669 258 643 q 343 694 304 694 q 405 669 382 694 q 428 601 428 643 q 406 537 428 560 q 343 514 383 514 q 281 537 303 514 m 76 328 l 76 461 l 618 461 l 618 328 l 76 328 z "},"ø":{"ha":694,"x_min":58,"x_max":636,"o":"m 347 671 q 471 651 417 671 l 513 724 l 604 669 l 560 592 q 636 331 636 510 q 565 67 636 153 q 347 -18 494 -18 q 225 0 282 -18 l 185 -69 l 94 -15 l 136 58 q 58 322 58 142 q 129 587 58 503 q 347 671 200 671 m 189 328 q 211 192 189 244 l 408 540 q 347 553 381 553 q 189 328 189 553 m 347 100 q 466 160 426 100 q 506 313 506 219 q 485 458 506 406 l 288 111 q 347 100 314 100 z "},"ù":{"ha":694,"x_min":78,"x_max":617,"o":"m 478 0 l 475 40 q 449 28 471 39 q 422 16 428 18 q 400 6 417 14 q 372 -3 381 0 l 350 -8 q 293 -15 324 -14 q 129 50 181 -15 q 78 257 78 115 l 78 660 l 221 660 l 221 265 q 240 159 221 194 q 308 124 260 124 q 408 144 357 124 q 474 178 458 164 l 474 660 l 617 660 l 617 0 l 478 0 m 251 1021 l 503 881 l 447 779 l 192 900 l 251 1021 z "},"ú":{"ha":694,"x_min":78,"x_max":617,"o":"m 478 0 l 475 40 q 449 28 471 39 q 422 16 428 18 q 400 6 417 14 q 372 -3 381 0 l 350 -8 q 293 -15 324 -14 q 129 50 181 -15 q 78 257 78 115 l 78 660 l 221 660 l 221 265 q 240 159 221 194 q 308 124 260 124 q 408 144 357 124 q 474 178 458 164 l 474 660 l 617 660 l 617 0 l 478 0 m 204 881 l 456 1021 l 515 900 l 260 779 l 204 881 z "},"û":{"ha":694,"x_min":78,"x_max":617,"o":"m 478 0 l 475 40 q 449 28 471 39 q 422 16 428 18 q 400 6 417 14 q 372 -3 381 0 l 350 -8 q 293 -15 324 -14 q 129 50 181 -15 q 78 257 78 115 l 78 660 l 221 660 l 221 265 q 240 159 221 194 q 308 124 260 124 q 408 144 357 124 q 474 178 458 164 l 474 660 l 617 660 l 617 0 l 478 0 m 413 1035 l 563 817 l 421 817 l 347 936 l 274 817 l 132 817 l 282 1035 l 413 1035 z "},"ü":{"ha":694,"x_min":78,"x_max":617,"o":"m 478 0 l 475 40 q 449 28 471 39 q 422 16 428 18 q 400 6 417 14 q 372 -3 381 0 l 350 -8 q 293 -15 324 -14 q 129 50 181 -15 q 78 257 78 115 l 78 660 l 221 660 l 221 265 q 240 159 221 194 q 308 124 260 124 q 408 144 357 124 q 474 178 458 164 l 474 660 l 617 660 l 617 0 l 478 0 m 157 843 q 146 855 157 843 q 135 899 135 867 q 158 954 135 931 q 213 978 181 978 q 267 954 244 978 q 290 899 290 931 q 268 843 290 867 q 213 819 246 819 q 157 843 179 819 m 425 843 q 414 855 425 843 q 403 899 403 867 q 425 954 403 931 q 481 978 447 978 q 536 954 514 978 q 558 899 558 931 q 536 843 558 867 q 481 819 514 819 q 425 843 447 819 z "},"ý":{"ha":694,"x_min":40,"x_max":653,"o":"m 40 660 l 196 660 l 356 124 l 367 124 l 501 660 l 653 660 l 469 17 q 415 -141 440 -86 q 346 -231 390 -196 q 247 -275 301 -265 q 94 -286 193 -285 l 94 -157 q 219 -139 179 -157 q 275 -82 260 -121 l 283 -61 l 40 660 m 192 881 l 443 1021 l 503 900 l 247 779 l 192 881 z "},"þ":{"ha":694,"x_min":79,"x_max":657,"o":"m 79 -267 l 79 910 l 218 910 l 218 608 q 383 671 311 671 q 591 588 525 671 q 657 332 657 506 q 576 72 657 158 q 346 -15 494 -15 q 222 14 296 -15 l 222 -267 l 79 -267 m 378 538 q 222 476 314 538 l 222 146 q 343 117 289 117 q 503 328 503 117 q 378 538 503 539 z "},"ÿ":{"ha":694,"x_min":40,"x_max":653,"o":"m 40 660 l 196 660 l 356 124 l 367 124 l 501 660 l 653 660 l 469 17 q 415 -141 440 -86 q 346 -231 390 -196 q 247 -275 301 -265 q 94 -286 193 -285 l 94 -157 q 219 -139 179 -157 q 275 -82 260 -121 l 283 -61 l 40 660 m 157 843 q 146 855 157 843 q 135 899 135 867 q 158 954 135 931 q 213 978 181 978 q 267 954 244 978 q 290 899 290 931 q 268 843 290 867 q 213 819 246 819 q 157 843 179 819 m 425 843 q 414 855 425 843 q 403 899 403 867 q 425 954 403 931 q 481 978 447 978 q 536 954 514 978 q 558 899 558 931 q 536 843 558 867 q 481 819 514 819 q 425 843 447 819 z "},"Ā":{"ha":694,"x_min":0,"x_max":694,"o":"m 117 1185 l 579 1185 l 579 1071 l 117 1071 l 117 1185 m 0 0 l 221 910 l 481 910 l 694 0 l 542 0 l 499 174 l 190 174 l 150 0 l 0 0 m 468 303 l 365 781 l 335 781 l 219 303 l 468 303 z "},"ā":{"ha":694,"x_min":56,"x_max":619,"o":"m 300 119 q 386 138 339 119 q 461 178 433 156 l 461 275 q 325 282 378 282 q 210 196 210 282 q 300 119 210 119 m 278 -15 q 56 196 56 -15 q 127 353 56 308 q 325 399 199 399 q 461 392 385 399 q 438 506 461 475 q 356 536 414 536 q 219 522 297 536 q 100 494 142 508 l 74 626 q 358 671 219 671 q 551 610 497 671 q 604 403 604 549 l 604 121 l 619 -1 l 476 -15 l 463 49 q 278 -15 346 -15 m 117 956 l 579 956 l 579 842 l 117 842 l 117 956 z "},"Ă":{"ha":694,"x_min":0,"x_max":694,"o":"m 546 1215 q 347 1047 535 1047 q 149 1215 160 1047 l 251 1215 q 282 1157 258 1174 q 347 1140 306 1140 q 413 1157 389 1140 q 443 1215 436 1174 l 546 1215 m 0 0 l 221 910 l 481 910 l 694 0 l 542 0 l 499 174 l 190 174 l 150 0 l 0 0 m 468 303 l 365 781 l 335 781 l 219 303 l 468 303 z "},"ă":{"ha":694,"x_min":56,"x_max":619,"o":"m 300 119 q 386 138 339 119 q 461 178 433 156 l 461 275 q 325 282 378 282 q 210 196 210 282 q 300 119 210 119 m 278 -15 q 56 196 56 -15 q 127 353 56 308 q 325 399 199 399 q 461 392 385 399 q 438 506 461 475 q 356 536 414 536 q 219 522 297 536 q 100 494 142 508 l 74 626 q 358 671 219 671 q 551 610 497 671 q 604 403 604 549 l 604 121 l 619 -1 l 476 -15 l 463 49 q 278 -15 346 -15 m 546 972 q 347 804 535 804 q 149 972 160 804 l 251 972 q 282 914 258 931 q 347 897 306 897 q 413 914 389 897 q 443 972 436 931 l 546 972 z "},"Ą":{"ha":694,"x_min":0,"x_max":697,"o":"m 424 -187 q 472 -67 424 -126 q 646 65 519 -8 l 697 0 q 576 -109 607 -68 q 544 -186 544 -150 q 561 -244 544 -222 q 614 -267 578 -267 q 682 -261 650 -267 l 696 -365 q 597 -375 635 -375 q 476 -328 528 -375 q 424 -187 424 -282 m 0 0 l 221 910 l 481 910 l 694 0 l 542 0 l 499 174 l 190 174 l 150 0 l 0 0 m 468 303 l 365 781 l 335 781 l 219 303 l 468 303 z "},"ą":{"ha":694,"x_min":56,"x_max":619,"o":"m 278 -15 q 56 196 56 -15 q 127 353 56 308 q 325 399 199 399 q 461 392 385 399 q 438 506 461 475 q 356 536 414 536 q 219 522 297 536 q 100 494 142 508 l 74 626 q 358 671 219 671 q 551 610 497 671 q 604 403 604 549 l 604 121 l 619 -1 q 497 -110 528 -69 q 467 -186 467 -150 q 483 -244 467 -222 q 536 -267 500 -267 q 604 -261 572 -267 l 618 -365 q 519 -375 557 -375 q 398 -328 450 -375 q 346 -187 346 -282 q 472 0 346 -93 l 463 49 q 278 -15 346 -15 m 300 119 q 386 138 339 119 q 461 178 433 156 l 461 275 q 325 282 378 282 q 210 196 210 282 q 300 119 210 119 z "},"Ć":{"ha":694,"x_min":56,"x_max":644,"o":"m 217 1128 l 501 1250 l 549 1136 l 263 1019 l 217 1128 m 619 149 l 644 28 q 406 -14 503 -14 q 251 8 310 -14 q 147 83 192 31 q 56 464 56 190 q 392 924 56 924 q 626 883 508 924 l 596 765 q 394 794 488 794 q 251 722 300 794 q 203 460 203 650 q 242 192 203 271 q 390 114 282 114 q 619 149 497 114 z "},"ć":{"ha":694,"x_min":82,"x_max":599,"o":"m 453 419 l 453 533 q 390 539 421 539 q 270 489 304 539 q 236 331 236 439 q 272 170 236 222 q 396 118 307 118 q 578 143 485 118 l 599 10 q 390 -18 501 -18 q 82 329 82 -18 q 152 591 82 508 q 386 674 222 674 q 589 647 492 674 l 589 419 l 453 419 m 192 881 l 443 1021 l 503 900 l 247 779 l 192 881 z "},"Ĉ":{"ha":694,"x_min":56,"x_max":644,"o":"m 142 1044 l 317 1225 l 428 1225 l 603 1044 l 467 1044 l 372 1142 l 278 1044 l 142 1044 m 619 149 l 644 28 q 406 -14 503 -14 q 251 8 310 -14 q 147 83 192 31 q 56 464 56 190 q 392 924 56 924 q 626 883 508 924 l 596 765 q 394 794 488 794 q 251 722 300 794 q 203 460 203 650 q 242 192 203 271 q 390 114 282 114 q 619 149 497 114 z "},"ĉ":{"ha":694,"x_min":82,"x_max":599,"o":"m 453 419 l 453 533 q 390 539 421 539 q 270 489 304 539 q 236 331 236 439 q 272 170 236 222 q 396 118 307 118 q 578 143 485 118 l 599 10 q 390 -18 501 -18 q 82 329 82 -18 q 152 591 82 508 q 386 674 222 674 q 589 647 492 674 l 589 419 l 453 419 m 413 1035 l 563 817 l 421 817 l 347 936 l 274 817 l 132 817 l 282 1035 l 413 1035 z "},"Ċ":{"ha":694,"x_min":56,"x_max":644,"o":"m 333 1072 q 322 1084 333 1072 q 311 1128 311 1096 q 333 1183 311 1160 q 389 1207 356 1207 q 444 1183 422 1207 q 467 1128 467 1160 q 444 1072 467 1096 q 389 1049 422 1049 q 333 1072 356 1049 m 619 149 l 644 28 q 406 -14 503 -14 q 251 8 310 -14 q 147 83 192 31 q 56 464 56 190 q 392 924 56 924 q 626 883 508 924 l 596 765 q 394 794 488 794 q 251 722 300 794 q 203 460 203 650 q 242 192 203 271 q 390 114 282 114 q 619 149 497 114 z "},"ċ":{"ha":694,"x_min":82,"x_max":599,"o":"m 453 419 l 453 533 q 390 539 421 539 q 270 489 304 539 q 236 331 236 439 q 272 170 236 222 q 396 118 307 118 q 578 143 485 118 l 599 10 q 390 -18 501 -18 q 82 329 82 -18 q 152 591 82 508 q 386 674 222 674 q 589 647 492 674 l 589 419 l 453 419 m 306 843 q 294 855 306 843 q 283 899 283 867 q 306 954 283 931 q 361 978 328 978 q 417 954 394 978 q 439 899 439 931 q 417 843 439 867 q 361 819 394 819 q 306 843 328 819 z "},"Č":{"ha":694,"x_min":56,"x_max":644,"o":"m 603 1225 l 428 1044 l 317 1044 l 142 1225 l 278 1225 l 372 1128 l 467 1225 l 603 1225 m 619 149 l 644 28 q 406 -14 503 -14 q 251 8 310 -14 q 147 83 192 31 q 56 464 56 190 q 392 924 56 924 q 626 883 508 924 l 596 765 q 394 794 488 794 q 251 722 300 794 q 203 460 203 650 q 242 192 203 271 q 390 114 282 114 q 619 149 497 114 z "},"č":{"ha":694,"x_min":82,"x_max":619,"o":"m 453 419 l 453 533 q 390 539 421 539 q 270 489 304 539 q 236 331 236 439 q 272 170 236 222 q 396 118 307 118 q 578 143 485 118 l 599 10 q 390 -18 501 -18 q 82 329 82 -18 q 152 591 82 508 q 386 674 222 674 q 589 647 492 674 l 589 419 l 453 419 m 619 1003 l 444 822 l 333 822 l 158 1003 l 294 1003 l 389 906 l 483 1003 l 619 1003 z "},"Ď":{"ha":694,"x_min":53,"x_max":647,"o":"m 547 1225 l 372 1044 l 261 1044 l 86 1225 l 222 1225 l 317 1128 l 411 1225 l 547 1225 m 53 0 l 53 910 l 269 910 q 447 892 379 910 q 561 824 514 874 q 628 685 608 774 q 647 435 647 597 q 608 175 647 274 q 489 38 568 76 q 267 0 410 0 l 53 0 m 444 185 q 460 203 444 185 q 488 284 476 221 q 500 456 500 347 q 490 628 500 565 q 449 727 481 690 q 372 774 418 764 q 242 785 326 785 l 197 785 l 197 125 l 239 125 q 366 137 319 125 q 444 185 413 149 z "},"ď":{"ha":694,"x_min":22,"x_max":693,"o":"m 522 926 l 522 115 l 535 0 l 394 -14 l 383 50 q 342 16 354 25 q 301 -4 329 7 q 244 -15 274 -15 q 76 60 131 -15 q 22 316 22 135 q 88 584 22 497 q 267 671 154 671 q 382 639 313 671 l 382 926 l 522 926 m 246 118 q 269 118 246 118 q 314 134 293 118 q 340 156 335 150 l 361 174 q 382 193 376 188 l 382 503 q 274 538 315 538 q 186 485 211 538 q 161 327 161 432 q 180 170 161 222 q 246 118 199 118 m 569 817 l 569 954 l 693 954 l 693 857 q 672 756 693 801 q 599 657 651 710 l 561 692 q 605 758 593 733 q 619 817 617 782 l 569 817 z "},"Đ":{"ha":694,"x_min":0,"x_max":654,"o":"m 61 0 l 61 408 l 0 408 l 0 525 l 61 525 l 61 910 l 276 910 q 447 892 381 910 q 562 824 513 874 q 633 684 611 774 q 654 455 654 594 q 631 224 654 315 q 555 85 607 133 q 438 18 503 36 q 274 0 372 0 l 61 0 m 249 785 l 199 785 l 199 525 l 369 525 l 369 408 l 199 408 l 199 125 l 246 125 q 278 124 254 125 q 320 124 303 124 q 367 131 338 125 q 414 149 397 138 q 453 184 431 160 q 486 242 475 208 q 514 420 514 326 q 508 563 514 514 q 492 647 503 613 q 467 706 482 681 q 435 745 453 731 q 397 769 418 760 q 357 781 378 778 q 279 785 303 786 q 249 785 256 785 z "},"đ":{"ha":694,"x_min":58,"x_max":694,"o":"m 315 836 l 694 836 l 694 735 l 315 735 l 315 836 m 633 926 l 633 115 l 647 0 l 507 -14 l 494 50 q 318 -15 404 -15 q 124 60 189 -15 q 58 317 58 136 q 138 584 58 497 q 343 671 217 671 q 492 639 417 671 l 492 926 l 633 926 m 328 118 q 492 193 401 118 l 492 503 q 350 538 419 538 q 213 317 213 538 q 328 118 213 118 z "},"Ē":{"ha":694,"x_min":83,"x_max":619,"o":"m 117 1185 l 579 1185 l 579 1071 l 117 1071 l 117 1185 m 83 0 l 83 910 l 615 910 l 615 779 l 228 779 l 228 526 l 578 526 l 578 401 l 228 401 l 228 131 l 619 131 l 619 0 l 83 0 z "},"ē":{"ha":694,"x_min":68,"x_max":633,"o":"m 68 329 q 143 584 68 497 q 351 671 218 671 q 558 592 485 671 q 633 363 631 514 l 628 260 l 222 260 q 372 110 235 110 q 575 144 468 110 l 604 24 q 489 -3 560 8 q 372 -15 418 -15 q 68 329 68 -15 m 357 542 q 259 503 292 542 q 222 376 226 465 l 479 376 q 357 542 479 542 m 117 956 l 579 956 l 579 842 l 117 842 l 117 956 z "},"Ĕ":{"ha":694,"x_min":83,"x_max":619,"o":"m 546 1215 q 347 1047 535 1047 q 149 1215 160 1047 l 251 1215 q 282 1157 258 1174 q 347 1140 306 1140 q 413 1157 389 1140 q 443 1215 436 1174 l 546 1215 m 83 0 l 83 910 l 615 910 l 615 779 l 228 779 l 228 526 l 578 526 l 578 401 l 228 401 l 228 131 l 619 131 l 619 0 l 83 0 z "},"ĕ":{"ha":694,"x_min":68,"x_max":633,"o":"m 68 329 q 143 584 68 497 q 351 671 218 671 q 558 592 485 671 q 633 363 631 514 l 628 260 l 222 260 q 372 110 235 110 q 575 144 468 110 l 604 24 q 489 -3 560 8 q 372 -15 418 -15 q 68 329 68 -15 m 357 542 q 259 503 292 542 q 222 376 226 465 l 479 376 q 357 542 479 542 m 546 972 q 347 804 535 804 q 149 972 160 804 l 251 972 q 282 914 258 931 q 347 897 306 897 q 413 914 389 897 q 443 972 436 931 l 546 972 z "},"Ė":{"ha":694,"x_min":83,"x_max":619,"o":"m 292 1072 q 281 1084 292 1072 q 269 1128 269 1096 q 292 1183 269 1160 q 347 1207 314 1207 q 403 1183 381 1207 q 425 1128 425 1160 q 403 1072 425 1096 q 347 1049 381 1049 q 292 1072 314 1049 m 83 0 l 83 910 l 615 910 l 615 779 l 228 779 l 228 526 l 578 526 l 578 401 l 228 401 l 228 131 l 619 131 l 619 0 l 83 0 z "},"ė":{"ha":694,"x_min":68,"x_max":633,"o":"m 68 329 q 143 584 68 497 q 351 671 218 671 q 558 592 485 671 q 633 363 631 514 l 628 260 l 222 260 q 372 110 235 110 q 575 144 468 110 l 604 24 q 489 -3 560 8 q 372 -15 418 -15 q 68 329 68 -15 m 357 542 q 259 503 292 542 q 222 376 226 465 l 479 376 q 357 542 479 542 m 292 843 q 281 855 292 843 q 269 899 269 867 q 292 954 269 931 q 347 978 314 978 q 403 954 381 978 q 425 899 425 931 q 403 843 425 867 q 347 819 381 819 q 292 843 314 819 z "},"Ę":{"ha":694,"x_min":83,"x_max":619,"o":"m 346 -186 q 378 -78 346 -129 q 472 0 411 -28 l 568 68 l 619 0 l 550 -53 q 467 -189 467 -114 q 483 -242 467 -219 q 536 -265 500 -265 q 604 -260 572 -265 l 618 -364 q 519 -374 557 -374 q 398 -327 450 -374 q 346 -186 346 -281 m 83 0 l 83 910 l 615 910 l 615 779 l 228 779 l 228 526 l 578 526 l 578 401 l 228 401 l 228 131 l 619 131 l 619 0 l 83 0 z "},"ę":{"ha":694,"x_min":68,"x_max":633,"o":"m 68 329 q 143 584 68 497 q 351 671 218 671 q 558 592 485 671 q 633 363 631 514 l 628 260 l 222 260 q 372 110 235 110 q 575 144 468 110 l 604 24 q 453 -105 490 -61 q 417 -184 417 -149 q 435 -242 418 -219 q 488 -265 451 -265 q 556 -260 525 -265 l 569 -364 q 471 -374 508 -374 q 349 -327 401 -374 q 297 -178 297 -281 q 393 -14 297 -75 q 372 -15 385 -15 q 68 329 68 -15 m 357 542 q 259 503 292 542 q 222 376 226 465 l 479 376 q 357 542 479 542 z "},"Ě":{"ha":694,"x_min":83,"x_max":619,"o":"m 582 1225 l 407 1044 l 296 1044 l 121 1225 l 257 1225 l 351 1128 l 446 1225 l 582 1225 m 83 0 l 83 910 l 615 910 l 615 779 l 228 779 l 228 526 l 578 526 l 578 401 l 228 401 l 228 131 l 619 131 l 619 0 l 83 0 z "},"ě":{"ha":694,"x_min":68,"x_max":633,"o":"m 68 329 q 143 584 68 497 q 351 671 218 671 q 558 592 485 671 q 633 363 631 514 l 628 260 l 222 260 q 372 110 235 110 q 575 144 468 110 l 604 24 q 489 -3 560 8 q 372 -15 418 -15 q 68 329 68 -15 m 357 542 q 259 503 292 542 q 222 376 226 465 l 479 376 q 357 542 479 542 m 578 1003 l 403 822 l 292 822 l 117 1003 l 253 1003 l 347 906 l 442 1003 l 578 1003 z "},"Ĝ":{"ha":694,"x_min":31,"x_max":651,"o":"m 135 1044 l 310 1225 l 421 1225 l 596 1044 l 460 1044 l 365 1142 l 271 1044 l 135 1044 m 369 -12 q 112 97 193 -12 q 31 453 31 207 q 115 811 31 699 q 378 924 199 924 q 633 885 519 924 l 608 761 q 378 794 511 794 q 223 715 268 794 q 178 460 178 636 q 226 202 178 283 q 369 121 274 121 q 513 139 438 121 l 513 354 l 383 354 l 383 482 l 651 482 l 651 35 q 369 -12 519 -12 z "},"ĝ":{"ha":694,"x_min":57,"x_max":638,"o":"m 633 160 l 638 -32 q 557 -215 638 -151 q 339 -279 476 -279 q 72 -233 201 -279 l 107 -106 q 314 -147 232 -147 q 445 -119 396 -147 q 494 -33 494 -90 q 492 10 494 -22 q 490 61 490 43 q 318 -1 401 -1 q 124 78 190 -1 q 57 330 57 157 q 133 585 57 503 q 340 668 208 668 q 415 654 369 668 q 490 624 460 640 l 493 664 l 633 664 l 633 160 m 328 131 q 490 200 399 131 l 490 486 q 344 536 411 536 q 211 333 211 536 q 328 131 211 131 m 413 1035 l 563 817 l 421 817 l 347 936 l 274 817 l 132 817 l 282 1035 l 413 1035 z "},"Ğ":{"ha":694,"x_min":31,"x_max":651,"o":"m 560 1215 q 361 1047 549 1047 q 163 1215 174 1047 l 265 1215 q 296 1157 272 1174 q 361 1140 319 1140 q 426 1157 403 1140 q 457 1215 450 1174 l 560 1215 m 369 -12 q 112 97 193 -12 q 31 453 31 207 q 115 811 31 699 q 378 924 199 924 q 633 885 519 924 l 608 761 q 378 794 511 794 q 223 715 268 794 q 178 460 178 636 q 226 202 178 283 q 369 121 274 121 q 513 139 438 121 l 513 354 l 383 354 l 383 482 l 651 482 l 651 35 q 369 -12 519 -12 z "},"ğ":{"ha":694,"x_min":57,"x_max":638,"o":"m 633 160 l 638 -32 q 557 -215 638 -151 q 339 -279 476 -279 q 72 -233 201 -279 l 107 -106 q 314 -147 232 -147 q 445 -119 396 -147 q 494 -33 494 -90 q 492 10 494 -22 q 490 61 490 43 q 318 -1 401 -1 q 124 78 190 -1 q 57 330 57 157 q 133 585 57 503 q 340 668 208 668 q 415 654 369 668 q 490 624 460 640 l 493 664 l 633 664 l 633 160 m 328 131 q 490 200 399 131 l 490 486 q 344 536 411 536 q 211 333 211 536 q 328 131 211 131 m 546 972 q 347 804 535 804 q 149 972 160 804 l 251 972 q 282 914 258 931 q 347 897 306 897 q 413 914 389 897 q 443 972 436 931 l 546 972 z "},"Ġ":{"ha":694,"x_min":31,"x_max":651,"o":"m 319 1072 q 308 1084 319 1072 q 297 1128 297 1096 q 319 1183 297 1160 q 375 1207 342 1207 q 431 1183 408 1207 q 453 1128 453 1160 q 431 1072 453 1096 q 375 1049 408 1049 q 319 1072 342 1049 m 369 -12 q 112 97 193 -12 q 31 453 31 207 q 115 811 31 699 q 378 924 199 924 q 633 885 519 924 l 608 761 q 378 794 511 794 q 223 715 268 794 q 178 460 178 636 q 226 202 178 283 q 369 121 274 121 q 513 139 438 121 l 513 354 l 383 354 l 383 482 l 651 482 l 651 35 q 369 -12 519 -12 z "},"ġ":{"ha":694,"x_min":57,"x_max":638,"o":"m 633 160 l 638 -32 q 557 -215 638 -151 q 339 -279 476 -279 q 72 -233 201 -279 l 107 -106 q 314 -147 232 -147 q 445 -119 396 -147 q 494 -33 494 -90 q 492 10 494 -22 q 490 61 490 43 q 318 -1 401 -1 q 124 78 190 -1 q 57 330 57 157 q 133 585 57 503 q 340 668 208 668 q 415 654 369 668 q 490 624 460 640 l 493 664 l 633 664 l 633 160 m 328 131 q 490 200 399 131 l 490 486 q 344 536 411 536 q 211 333 211 536 q 328 131 211 131 m 313 843 q 301 855 313 843 q 290 899 290 867 q 313 954 290 931 q 368 978 335 978 q 424 954 401 978 q 446 899 446 931 q 424 843 446 867 q 368 819 401 819 q 313 843 335 819 z "},"Ģ":{"ha":694,"x_min":31,"x_max":651,"o":"m 307 -222 l 307 -82 l 446 -82 l 446 -178 q 423 -270 446 -232 q 346 -349 400 -308 l 303 -300 q 338 -261 325 -281 q 351 -222 350 -242 l 307 -222 m 369 -12 q 112 97 193 -12 q 31 453 31 207 q 115 811 31 699 q 378 924 199 924 q 633 885 519 924 l 608 761 q 378 794 511 794 q 223 715 268 794 q 178 460 178 636 q 226 202 178 283 q 369 121 274 121 q 513 139 438 121 l 513 354 l 383 354 l 383 482 l 651 482 l 651 35 q 369 -12 519 -12 z "},"ģ":{"ha":694,"x_min":57,"x_max":638,"o":"m 428 936 l 428 796 l 289 796 l 289 892 q 312 984 289 946 q 389 1063 335 1022 l 432 1014 q 397 975 410 994 q 383 936 385 956 l 428 936 m 633 160 l 638 -32 q 557 -215 638 -151 q 339 -279 476 -279 q 72 -233 201 -279 l 107 -106 q 314 -147 232 -147 q 445 -119 396 -147 q 494 -33 494 -90 q 492 10 494 -22 q 490 61 490 43 q 318 -1 401 -1 q 124 78 190 -1 q 57 330 57 157 q 133 585 57 503 q 340 668 208 668 q 415 654 369 668 q 490 624 460 640 l 493 664 l 633 664 l 633 160 m 328 131 q 490 200 399 131 l 490 486 q 344 536 411 536 q 211 333 211 536 q 328 131 211 131 z "},"Ĥ":{"ha":694,"x_min":44,"x_max":651,"o":"m 117 1044 l 292 1225 l 403 1225 l 578 1044 l 442 1044 l 347 1142 l 253 1044 l 117 1044 m 44 0 l 44 910 l 190 910 l 190 518 l 506 518 l 506 910 l 651 910 l 651 0 l 506 0 l 506 388 l 190 388 l 190 0 l 44 0 z "},"ĥ":{"ha":694,"x_min":78,"x_max":615,"o":"m 221 486 l 221 0 l 78 0 l 78 926 l 221 926 l 221 621 q 397 671 333 671 q 566 601 517 671 q 615 399 615 532 l 615 0 l 472 0 l 472 401 q 449 498 472 460 q 389 536 426 536 q 221 486 321 536 m 413 1263 l 563 1044 l 421 1044 l 347 1164 l 274 1044 l 132 1044 l 282 1263 l 413 1263 z "},"Ħ":{"ha":694,"x_min":0,"x_max":694,"o":"m 0 735 l 694 735 l 694 633 l 0 633 l 0 735 m 44 0 l 44 910 l 190 910 l 190 518 l 506 518 l 506 910 l 651 910 l 651 0 l 506 0 l 506 388 l 190 388 l 190 0 l 44 0 z "},"ħ":{"ha":694,"x_min":0,"x_max":615,"o":"m 0 836 l 421 836 l 421 735 l 0 735 l 0 836 m 221 486 l 221 0 l 78 0 l 78 926 l 221 926 l 221 621 q 397 671 333 671 q 566 601 517 671 q 615 399 615 532 l 615 0 l 472 0 l 472 401 q 449 498 472 460 q 389 536 426 536 q 221 486 321 536 z "},"Ĩ":{"ha":694,"x_min":100,"x_max":590,"o":"m 518 1208 l 575 1131 q 442 1057 507 1057 q 340 1086 393 1057 q 258 1117 289 1117 q 182 1074 228 1117 l 119 1150 q 267 1229 201 1229 q 367 1200 313 1229 q 450 1171 422 1171 q 518 1208 478 1171 m 100 0 l 100 129 l 279 129 l 279 781 l 100 781 l 100 910 l 590 910 l 590 781 l 424 781 l 424 129 l 590 129 l 590 0 l 100 0 z "},"ĩ":{"ha":694,"x_min":119,"x_max":594,"o":"m 143 529 l 143 657 l 440 657 l 440 128 l 594 128 l 594 0 l 132 0 l 132 128 l 297 128 l 297 529 l 143 529 m 518 979 l 575 901 q 442 828 507 828 q 340 858 393 828 q 258 888 289 888 q 182 844 228 888 l 119 921 q 267 1000 201 1000 q 367 971 313 1000 q 450 942 422 942 q 518 979 478 942 z "},"ī":{"ha":694,"x_min":117,"x_max":594,"o":"m 143 529 l 143 657 l 440 657 l 440 128 l 594 128 l 594 0 l 132 0 l 132 128 l 297 128 l 297 529 l 143 529 m 117 956 l 579 956 l 579 842 l 117 842 l 117 956 z "},"Ĭ":{"ha":694,"x_min":100,"x_max":590,"o":"m 547 1215 q 349 1047 536 1047 q 150 1215 161 1047 l 253 1215 q 283 1157 260 1174 q 349 1140 307 1140 q 414 1157 390 1140 q 444 1215 438 1174 l 547 1215 m 100 0 l 100 129 l 279 129 l 279 781 l 100 781 l 100 910 l 590 910 l 590 781 l 424 781 l 424 129 l 590 129 l 590 0 l 100 0 z "},"Į":{"ha":694,"x_min":100,"x_max":590,"o":"m 303 -186 q 335 -78 303 -129 q 429 0 368 -28 l 525 68 l 576 0 l 507 -53 q 424 -189 424 -114 q 440 -242 424 -219 q 494 -265 458 -265 q 561 -260 531 -265 l 575 -364 q 476 -374 514 -374 q 355 -327 407 -374 q 303 -186 303 -281 m 100 0 l 100 129 l 279 129 l 279 781 l 100 781 l 100 910 l 590 910 l 590 781 l 424 781 l 424 129 l 590 129 l 590 0 l 100 0 z "},"į":{"ha":694,"x_min":132,"x_max":594,"o":"m 321 -187 q 369 -66 321 -126 q 543 68 417 -6 l 594 0 q 473 -109 504 -68 q 442 -186 442 -150 q 458 -244 442 -222 q 511 -267 475 -267 q 579 -261 547 -267 l 593 -365 q 494 -375 532 -375 q 373 -328 425 -375 q 321 -187 321 -282 m 143 529 l 143 657 l 440 657 l 440 128 l 594 128 l 594 0 l 132 0 l 132 128 l 297 128 l 297 529 l 143 529 m 301 778 q 288 792 301 778 q 275 842 275 806 q 300 903 275 878 q 361 928 325 928 q 422 903 397 928 q 447 842 447 879 q 422 778 447 804 q 363 751 397 751 q 301 778 328 751 z "},"İ":{"ha":694,"x_min":100,"x_max":590,"o":"m 292 1072 q 281 1084 292 1072 q 269 1128 269 1096 q 292 1183 269 1160 q 347 1207 314 1207 q 403 1183 381 1207 q 425 1128 425 1160 q 403 1072 425 1096 q 347 1049 381 1049 q 292 1072 314 1049 m 100 0 l 100 129 l 279 129 l 279 781 l 100 781 l 100 910 l 590 910 l 590 781 l 424 781 l 424 129 l 590 129 l 590 0 l 100 0 z "},"ı":{"ha":694,"x_min":132,"x_max":594,"o":"m 143 529 l 143 657 l 440 657 l 440 128 l 594 128 l 594 0 l 132 0 l 132 128 l 297 128 l 297 529 l 143 529 z "},"Ĳ":{"ha":694,"x_min":40,"x_max":651,"o":"m 157 369 l 157 806 l 40 806 l 40 910 l 406 910 l 406 806 l 292 806 l 292 369 l 406 369 l 406 265 l 40 265 l 40 369 l 157 369 m 515 910 l 651 910 l 651 285 q 535 64 651 131 q 413 14 476 31 q 256 -14 349 -3 l 239 117 q 452 175 389 139 q 515 282 515 211 l 515 910 z "},"Ĵ":{"ha":694,"x_min":61,"x_max":558,"o":"m 97 1044 l 272 1225 l 383 1225 l 558 1044 l 422 1044 l 328 1142 l 233 1044 l 97 1044 m 460 779 l 460 299 q 426 47 460 110 q 272 -15 393 -15 q 61 22 194 -15 l 86 140 q 217 113 151 121 q 299 138 282 104 q 315 301 315 172 l 315 779 l 106 779 l 106 910 l 546 910 l 546 779 l 460 779 z "},"ĵ":{"ha":694,"x_min":121,"x_max":563,"o":"m 489 660 l 489 -14 q 428 -203 489 -139 q 263 -275 381 -253 q 138 -293 160 -294 l 121 -160 q 304 -116 263 -139 q 346 -14 346 -93 l 346 535 l 183 535 l 183 660 l 489 660 m 413 1035 l 563 817 l 421 817 l 347 936 l 274 817 l 132 817 l 282 1035 l 413 1035 z "},"Ķ":{"ha":694,"x_min":68,"x_max":667,"o":"m 279 -222 l 279 -82 l 418 -82 l 418 -178 q 395 -270 418 -232 q 318 -349 372 -308 l 275 -300 q 310 -261 297 -281 q 324 -222 322 -242 l 279 -222 m 500 910 l 657 910 q 407 468 517 632 q 511 289 447 406 q 667 0 511 289 l 510 0 q 294 390 369 271 l 208 382 l 208 0 l 68 0 l 68 910 l 208 910 l 208 514 l 283 525 q 468 847 375 667 l 500 910 z "},"ķ":{"ha":694,"x_min":107,"x_max":646,"o":"m 479 660 l 633 660 q 417 351 517 471 q 646 0 532 188 l 481 0 q 311 272 408 125 l 250 265 l 250 0 l 107 0 l 107 926 l 250 926 l 250 394 l 303 404 q 479 660 372 494 m 283 -222 l 283 -82 l 422 -82 l 422 -178 q 399 -270 422 -232 q 322 -349 376 -308 l 279 -300 q 314 -261 301 -281 q 328 -222 326 -242 l 283 -222 z "},"Ĺ":{"ha":694,"x_min":94,"x_max":610,"o":"m 189 1128 l 474 1250 l 521 1136 l 235 1019 l 189 1128 m 610 131 l 610 0 l 94 0 l 94 910 l 239 910 l 239 131 l 610 131 z "},"ĺ":{"ha":694,"x_min":132,"x_max":588,"o":"m 138 799 l 136 925 l 432 926 l 432 125 l 588 125 l 588 0 l 132 0 l 132 125 l 289 125 l 289 800 l 138 799 m 206 1082 l 457 1222 l 517 1101 l 261 981 l 206 1082 z "},"Ļ":{"ha":694,"x_min":94,"x_max":610,"o":"m 279 -222 l 279 -82 l 418 -82 l 418 -178 q 395 -270 418 -232 q 318 -349 372 -308 l 275 -300 q 310 -261 297 -281 q 324 -222 322 -242 l 279 -222 m 610 131 l 610 0 l 94 0 l 94 910 l 239 910 l 239 131 l 610 131 z "},"ļ":{"ha":694,"x_min":132,"x_max":588,"o":"m 138 799 l 136 925 l 432 926 l 432 125 l 588 125 l 588 0 l 132 0 l 132 125 l 289 125 l 289 800 l 138 799 m 290 -222 l 290 -82 l 429 -82 l 429 -178 q 406 -270 429 -232 q 329 -349 383 -308 l 286 -300 q 321 -261 308 -281 q 335 -222 333 -242 l 290 -222 z "},"Ľ":{"ha":694,"x_min":94,"x_max":610,"o":"m 431 817 l 431 954 l 554 954 l 554 857 q 534 764 554 803 q 460 671 514 725 l 422 706 q 466 769 454 747 q 481 817 478 792 l 431 817 m 610 131 l 610 0 l 94 0 l 94 910 l 239 910 l 239 131 l 610 131 z "},"ľ":{"ha":694,"x_min":132,"x_max":650,"o":"m 521 817 l 521 954 l 650 954 l 650 857 q 628 756 650 801 q 554 657 607 710 l 517 692 q 560 758 549 733 q 575 817 572 782 l 521 817 m 138 799 l 136 925 l 432 926 l 432 125 l 588 125 l 588 0 l 132 0 l 132 125 l 289 125 l 289 800 l 138 799 z "},"Ł":{"ha":694,"x_min":0,"x_max":624,"o":"m 456 458 l 0 346 l 0 479 l 456 590 l 456 458 m 624 131 l 624 0 l 108 0 l 108 910 l 253 910 l 253 131 l 624 131 z "},"ł":{"ha":694,"x_min":132,"x_max":588,"o":"m 588 458 l 132 346 l 132 479 l 588 590 l 588 458 m 138 799 l 136 925 l 432 926 l 432 125 l 588 125 l 588 0 l 132 0 l 132 125 l 289 125 l 289 800 l 138 799 z "},"Ń":{"ha":694,"x_min":43,"x_max":651,"o":"m 189 1128 l 474 1250 l 521 1136 l 235 1019 l 189 1128 m 521 0 l 521 121 l 178 685 l 174 685 l 174 0 l 43 0 l 43 910 l 174 910 l 515 340 l 521 340 l 521 910 l 651 910 l 651 0 l 521 0 z "},"ń":{"ha":694,"x_min":78,"x_max":615,"o":"m 217 660 l 219 619 q 396 671 332 671 q 562 605 508 671 q 615 399 615 539 l 615 0 l 472 0 l 472 394 q 449 499 472 461 q 375 536 425 536 q 221 488 325 536 l 221 0 l 78 0 l 78 660 l 217 660 m 192 881 l 443 1021 l 503 900 l 247 779 l 192 881 z "},"Ņ":{"ha":694,"x_min":43,"x_max":651,"o":"m 276 -222 l 276 -82 l 415 -82 l 415 -178 q 392 -270 415 -232 q 315 -349 369 -308 l 272 -300 q 307 -261 294 -281 q 321 -222 319 -242 l 276 -222 m 521 0 l 521 121 l 178 685 l 174 685 l 174 0 l 43 0 l 43 910 l 174 910 l 515 340 l 521 340 l 521 910 l 651 910 l 651 0 l 521 0 z "},"ņ":{"ha":694,"x_min":78,"x_max":615,"o":"m 217 660 l 219 619 q 396 671 332 671 q 562 605 508 671 q 615 399 615 539 l 615 0 l 472 0 l 472 394 q 449 499 472 461 q 375 536 425 536 q 221 488 325 536 l 221 0 l 78 0 l 78 660 l 217 660 m 283 -222 l 283 -82 l 422 -82 l 422 -178 q 399 -270 422 -232 q 322 -349 376 -308 l 279 -300 q 314 -261 301 -281 q 328 -222 326 -242 l 283 -222 z "},"Ň":{"ha":694,"x_min":43,"x_max":651,"o":"m 582 1225 l 407 1044 l 296 1044 l 121 1225 l 257 1225 l 351 1128 l 446 1225 l 582 1225 m 521 0 l 521 121 l 178 685 l 174 685 l 174 0 l 43 0 l 43 910 l 174 910 l 515 340 l 521 340 l 521 910 l 651 910 l 651 0 l 521 0 z "},"ň":{"ha":694,"x_min":78,"x_max":615,"o":"m 217 660 l 219 619 q 396 671 332 671 q 562 605 508 671 q 615 399 615 539 l 615 0 l 472 0 l 472 394 q 449 499 472 461 q 375 536 425 536 q 221 488 325 536 l 221 0 l 78 0 l 78 660 l 217 660 m 578 1003 l 403 822 l 292 822 l 117 1003 l 253 1003 l 347 906 l 442 1003 l 578 1003 z "},"Ŋ":{"ha":694,"x_min":25,"x_max":668,"o":"m 668 910 l 668 -14 q 606 -203 667 -139 q 442 -275 558 -253 q 317 -293 339 -294 l 300 -160 q 483 -116 442 -139 q 524 -14 524 -93 l 524 121 l 168 674 l 168 0 l 25 0 l 25 910 l 171 910 l 524 347 l 524 910 l 668 910 z "},"ŋ":{"ha":694,"x_min":78,"x_max":615,"o":"m 615 399 l 615 -14 q 586 -157 615 -92 q 506 -231 569 -194 q 414 -258 469 -250 q 264 -279 300 -275 l 247 -146 q 328 -135 306 -137 q 372 -128 350 -132 q 401 -121 393 -124 q 424 -112 410 -118 q 443 -101 439 -107 q 456 -87 447 -96 q 467 -69 464 -81 q 472 -14 472 -39 l 472 394 q 449 499 472 461 q 375 536 425 536 q 221 488 325 536 l 221 0 l 78 0 l 78 660 l 217 660 l 219 619 q 396 671 332 671 q 562 605 508 671 q 615 399 615 539 z "},"Ō":{"ha":694,"x_min":35,"x_max":660,"o":"m 117 1185 l 579 1185 l 579 1071 l 117 1071 l 117 1185 m 349 -14 q 264 -14 349 -14 q 107 103 179 -14 q 35 460 35 219 q 109 813 35 701 q 351 924 183 924 q 589 814 518 924 q 660 458 660 704 q 589 99 660 211 q 349 -14 518 -14 m 346 117 q 394 117 346 117 q 478 188 443 117 q 513 460 513 260 q 478 726 513 660 q 351 793 444 793 q 219 721 257 793 q 182 463 182 649 q 215 197 182 278 q 346 117 249 117 z "},"ō":{"ha":694,"x_min":58,"x_max":636,"o":"m 129 587 q 165 629 129 587 q 347 671 200 671 q 565 587 494 671 q 636 328 636 503 q 565 67 636 153 q 347 -18 494 -18 q 129 67 200 -18 q 58 328 58 153 q 129 587 58 503 m 241 488 q 227 463 241 488 q 213 328 213 439 q 242 167 213 217 q 347 117 271 117 q 453 167 424 117 q 482 328 482 217 q 453 488 482 439 q 347 536 425 536 q 241 488 269 536 m 117 956 l 579 956 l 579 842 l 117 842 l 117 956 z "},"Ŏ":{"ha":694,"x_min":35,"x_max":660,"o":"m 547 1215 q 349 1047 536 1047 q 150 1215 161 1047 l 253 1215 q 283 1157 260 1174 q 349 1140 307 1140 q 414 1157 390 1140 q 444 1215 438 1174 l 547 1215 m 349 -14 q 264 -14 349 -14 q 107 103 179 -14 q 35 460 35 219 q 109 813 35 701 q 351 924 183 924 q 589 814 518 924 q 660 458 660 704 q 589 99 660 211 q 349 -14 518 -14 m 346 117 q 394 117 346 117 q 478 188 443 117 q 513 460 513 260 q 478 726 513 660 q 351 793 444 793 q 219 721 257 793 q 182 463 182 649 q 215 197 182 278 q 346 117 249 117 z "},"ŏ":{"ha":694,"x_min":58,"x_max":636,"o":"m 129 587 q 165 629 129 587 q 347 671 200 671 q 565 587 494 671 q 636 328 636 503 q 565 67 636 153 q 347 -18 494 -18 q 129 67 200 -18 q 58 328 58 153 q 129 587 58 503 m 241 488 q 227 463 241 488 q 213 328 213 439 q 242 167 213 217 q 347 117 271 117 q 453 167 424 117 q 482 328 482 217 q 453 488 482 439 q 347 536 425 536 q 241 488 269 536 m 546 972 q 347 804 535 804 q 149 972 160 804 l 251 972 q 282 914 258 931 q 347 897 306 897 q 413 914 389 897 q 443 972 436 931 l 546 972 z "},"Ő":{"ha":694,"x_min":35,"x_max":667,"o":"m 61 1051 l 299 1214 l 369 1099 l 125 956 l 61 1051 m 358 1051 l 596 1214 l 667 1099 l 422 956 l 358 1051 m 349 -14 q 264 -14 349 -14 q 107 103 179 -14 q 35 460 35 219 q 109 813 35 701 q 351 924 183 924 q 589 814 518 924 q 660 458 660 704 q 589 99 660 211 q 349 -14 518 -14 m 346 117 q 394 117 346 117 q 478 188 443 117 q 513 460 513 260 q 478 726 513 660 q 351 793 444 793 q 219 721 257 793 q 182 463 182 649 q 215 197 182 278 q 346 117 249 117 z "},"ő":{"ha":694,"x_min":58,"x_max":667,"o":"m 129 587 q 165 629 129 587 q 347 671 200 671 q 565 587 494 671 q 636 328 636 503 q 565 67 636 153 q 347 -18 494 -18 q 129 67 200 -18 q 58 328 58 153 q 129 587 58 503 m 241 488 q 227 463 241 488 q 213 328 213 439 q 242 167 213 217 q 347 117 271 117 q 453 167 424 117 q 482 328 482 217 q 453 488 482 439 q 347 536 425 536 q 241 488 269 536 m 61 843 l 299 1006 l 369 890 l 125 747 l 61 843 m 358 843 l 596 1006 l 667 890 l 422 747 l 358 843 z "},"Œ":{"ha":694,"x_min":36,"x_max":668,"o":"m 358 924 l 664 924 l 664 786 l 490 786 l 490 526 l 626 526 l 626 401 l 490 401 l 490 124 l 668 124 l 668 0 l 358 0 q 106 117 176 0 q 36 469 36 233 q 104 815 36 706 q 358 924 172 924 m 178 474 q 324 117 178 117 l 346 117 l 346 792 q 324 793 328 793 q 178 474 178 793 z "},"œ":{"ha":694,"x_min":24,"x_max":674,"o":"m 353 103 q 212 -14 324 -14 q 62 69 100 -14 q 24 328 24 153 q 62 585 24 503 q 206 668 100 668 q 293 645 257 668 q 340 599 329 622 l 351 575 q 485 668 382 668 q 631 594 589 668 q 674 371 674 519 l 669 279 l 418 279 q 446 144 418 189 q 504 100 474 100 q 617 121 561 100 l 635 128 l 668 21 q 533 -12 585 -12 q 450 -1 482 -12 q 401 25 418 11 q 372 61 385 42 q 353 103 356 86 m 144 503 q 136 475 144 503 q 128 328 128 447 q 144 152 128 208 q 205 96 161 96 q 265 152 249 96 q 282 328 282 208 q 266 503 282 447 q 206 558 250 558 q 144 503 161 558 m 561 392 q 546 528 561 494 q 490 563 531 563 q 432 524 449 563 q 413 392 415 485 l 561 392 z "},"Ŕ":{"ha":694,"x_min":51,"x_max":650,"o":"m 161 1128 l 446 1250 l 493 1136 l 207 1019 l 161 1128 m 344 332 q 261 328 269 328 l 196 328 l 196 0 l 51 0 l 51 910 l 338 910 q 567 842 489 910 q 644 618 644 775 q 489 364 644 438 q 650 0 585 182 l 494 0 q 344 332 432 168 m 310 782 l 196 782 l 196 461 l 311 461 q 497 618 497 461 q 453 744 497 706 q 310 782 408 782 z "},"ŕ":{"ha":694,"x_min":113,"x_max":614,"o":"m 113 532 l 113 660 l 365 660 l 368 593 q 614 671 479 656 l 614 532 q 486 503 560 526 q 368 454 413 479 l 368 125 l 565 125 l 565 0 l 113 0 l 113 128 l 226 128 l 226 532 l 113 532 m 192 881 l 443 1021 l 503 900 l 247 779 l 192 881 z "},"Ŗ":{"ha":694,"x_min":51,"x_max":650,"o":"m 279 -222 l 279 -82 l 418 -82 l 418 -178 q 395 -270 418 -232 q 318 -349 372 -308 l 275 -300 q 310 -261 297 -281 q 324 -222 322 -242 l 279 -222 m 344 332 q 261 328 269 328 l 196 328 l 196 0 l 51 0 l 51 910 l 338 910 q 567 842 489 910 q 644 618 644 775 q 489 364 644 438 q 650 0 585 182 l 494 0 q 344 332 432 168 m 310 782 l 196 782 l 196 461 l 311 461 q 497 618 497 461 q 453 744 497 706 q 310 782 408 782 z "},"ŗ":{"ha":694,"x_min":113,"x_max":614,"o":"m 113 532 l 113 660 l 365 660 l 368 593 q 614 671 479 656 l 614 532 q 486 503 560 526 q 368 454 413 479 l 368 125 l 565 125 l 565 0 l 113 0 l 113 128 l 226 128 l 226 532 l 113 532 m 283 -222 l 283 -82 l 422 -82 l 422 -178 q 399 -270 422 -232 q 322 -349 376 -308 l 279 -300 q 314 -261 301 -281 q 328 -222 326 -242 l 283 -222 z "},"Ř":{"ha":694,"x_min":51,"x_max":650,"o":"m 554 1225 l 379 1044 l 268 1044 l 93 1225 l 229 1225 l 324 1128 l 418 1225 l 554 1225 m 344 332 q 261 328 269 328 l 196 328 l 196 0 l 51 0 l 51 910 l 338 910 q 567 842 489 910 q 644 618 644 775 q 489 364 644 438 q 650 0 585 182 l 494 0 q 344 332 432 168 m 310 782 l 196 782 l 196 461 l 311 461 q 497 618 497 461 q 453 744 497 706 q 310 782 408 782 z "},"ř":{"ha":694,"x_min":113,"x_max":614,"o":"m 113 532 l 113 660 l 365 660 l 368 593 q 614 671 479 656 l 614 532 q 486 503 560 526 q 368 454 413 479 l 368 125 l 565 125 l 565 0 l 113 0 l 113 128 l 226 128 l 226 532 l 113 532 m 578 1003 l 403 822 l 292 822 l 117 1003 l 253 1003 l 347 906 l 442 1003 l 578 1003 z "},"Ś":{"ha":694,"x_min":58,"x_max":636,"o":"m 206 1082 l 457 1222 l 517 1101 l 261 981 l 206 1082 m 58 667 q 367 924 58 924 q 614 875 475 924 l 582 749 q 359 794 440 793 q 242 767 278 794 q 206 669 206 739 q 246 590 206 622 q 382 532 286 557 q 582 432 528 493 q 636 250 636 371 q 322 -12 636 -12 q 60 32 218 -12 l 89 164 q 132 151 89 163 q 341 117 267 117 q 452 154 415 117 q 489 249 489 192 q 458 336 489 306 q 343 390 426 367 q 126 493 193 432 q 58 667 58 554 z "},"ś":{"ha":694,"x_min":88,"x_max":606,"o":"m 88 31 l 118 157 q 328 115 250 115 q 433 131 406 115 q 461 181 461 144 q 436 232 461 217 q 342 264 411 247 q 150 338 204 297 q 96 472 96 379 q 351 671 96 671 q 606 635 461 671 l 579 503 q 367 542 442 542 q 266 528 292 542 q 240 483 240 515 q 266 437 240 451 q 399 393 292 422 q 556 326 506 364 q 606 196 606 288 q 347 -14 606 -14 q 88 31 226 -14 m 192 881 l 443 1021 l 503 900 l 247 779 l 192 881 z "},"Ŝ":{"ha":694,"x_min":58,"x_max":636,"o":"m 121 1044 l 296 1225 l 407 1225 l 582 1044 l 446 1044 l 351 1142 l 257 1044 l 121 1044 m 58 667 q 367 924 58 924 q 614 875 475 924 l 582 749 q 359 794 440 793 q 242 767 278 794 q 206 669 206 739 q 246 590 206 622 q 382 532 286 557 q 582 432 528 493 q 636 250 636 371 q 322 -12 636 -12 q 60 32 218 -12 l 89 164 q 132 151 89 163 q 341 117 267 117 q 452 154 415 117 q 489 249 489 192 q 458 336 489 306 q 343 390 426 367 q 126 493 193 432 q 58 667 58 554 z "},"ŝ":{"ha":694,"x_min":88,"x_max":606,"o":"m 88 31 l 118 157 q 328 115 250 115 q 433 131 406 115 q 461 181 461 144 q 436 232 461 217 q 342 264 411 247 q 150 338 204 297 q 96 472 96 379 q 351 671 96 671 q 606 635 461 671 l 579 503 q 367 542 442 542 q 266 528 292 542 q 240 483 240 515 q 266 437 240 451 q 399 393 292 422 q 556 326 506 364 q 606 196 606 288 q 347 -14 606 -14 q 88 31 226 -14 m 413 1035 l 563 817 l 421 817 l 347 936 l 274 817 l 132 817 l 282 1035 l 413 1035 z "},"Ş":{"ha":694,"x_min":58,"x_max":636,"o":"m 313 -58 q 424 -97 381 -58 q 468 -206 468 -135 q 426 -317 468 -278 q 313 -357 385 -357 q 228 -347 283 -357 l 239 -260 q 303 -264 288 -264 q 365 -206 365 -264 q 351 -162 365 -175 q 303 -150 336 -150 l 244 -154 l 232 -69 q 313 -58 276 -58 m 58 667 q 367 924 58 924 q 614 875 475 924 l 582 749 q 359 794 440 793 q 242 767 278 794 q 206 669 206 739 q 246 590 206 622 q 382 532 286 557 q 582 432 528 493 q 636 250 636 371 q 322 -12 636 -12 q 60 32 218 -12 l 89 164 q 132 151 89 163 q 341 117 267 117 q 452 154 415 117 q 489 249 489 192 q 458 336 489 306 q 343 390 426 367 q 126 493 193 432 q 58 667 58 554 z "},"ş":{"ha":694,"x_min":88,"x_max":606,"o":"m 88 31 l 118 157 q 328 115 250 115 q 434 131 407 115 q 461 181 461 146 q 436 232 461 217 q 342 264 411 247 q 150 338 204 297 q 96 472 96 379 q 351 671 96 671 q 606 635 461 671 l 579 503 q 367 542 443 542 q 266 528 292 542 q 240 483 240 515 q 266 437 240 451 q 399 393 292 422 q 556 326 506 364 q 606 196 606 288 q 347 -14 606 -14 q 88 31 226 -14 m 313 -58 q 424 -97 381 -58 q 468 -206 468 -135 q 426 -317 468 -278 q 313 -357 385 -357 q 228 -347 283 -357 l 239 -260 q 303 -264 288 -264 q 365 -206 365 -264 q 351 -162 365 -175 q 303 -150 336 -150 l 244 -154 l 232 -69 q 313 -58 276 -58 z "},"Š":{"ha":694,"x_min":58,"x_max":636,"o":"m 568 1225 l 393 1044 l 282 1044 l 107 1225 l 243 1225 l 338 1128 l 432 1225 l 568 1225 m 58 667 q 367 924 58 924 q 614 875 475 924 l 582 749 q 359 794 440 793 q 242 767 278 794 q 206 669 206 739 q 246 590 206 622 q 382 532 286 557 q 582 432 528 493 q 636 250 636 371 q 322 -12 636 -12 q 60 32 218 -12 l 89 164 q 132 151 89 163 q 341 117 267 117 q 452 154 415 117 q 489 249 489 192 q 458 336 489 306 q 343 390 426 367 q 126 493 193 432 q 58 667 58 554 z "},"š":{"ha":694,"x_min":88,"x_max":606,"o":"m 88 31 l 118 157 q 328 115 250 115 q 433 131 406 115 q 461 181 461 144 q 436 232 461 217 q 342 264 411 247 q 150 338 204 297 q 96 472 96 379 q 351 671 96 671 q 606 635 461 671 l 579 503 q 367 542 442 542 q 266 528 292 542 q 240 483 240 515 q 266 437 240 451 q 399 393 292 422 q 556 326 506 364 q 606 196 606 288 q 347 -14 606 -14 q 88 31 226 -14 m 578 1003 l 403 822 l 292 822 l 117 1003 l 253 1003 l 347 906 l 442 1003 l 578 1003 z "},"Ţ":{"ha":694,"x_min":39,"x_max":653,"o":"m 279 -222 l 279 -82 l 418 -82 l 418 -178 q 395 -270 418 -232 q 318 -349 372 -308 l 275 -300 q 310 -261 297 -281 q 324 -222 322 -242 l 279 -222 m 39 779 l 39 910 l 653 910 l 653 779 l 418 779 l 418 0 l 274 0 l 274 779 l 39 779 z "},"ţ":{"ha":694,"x_min":89,"x_max":596,"o":"m 194 531 l 89 531 l 89 660 l 194 660 l 194 818 l 338 832 l 338 660 l 585 660 l 585 531 l 338 531 l 338 253 q 353 147 338 176 q 424 118 368 118 q 572 140 481 118 l 596 13 q 415 -15 490 -15 q 238 44 282 -15 q 194 253 194 104 l 194 531 m 311 -222 l 311 -82 l 450 -82 l 450 -178 q 427 -270 450 -232 q 350 -349 404 -308 l 307 -300 q 342 -261 329 -281 q 356 -222 354 -242 l 311 -222 z "},"Ť":{"ha":694,"x_min":39,"x_max":653,"o":"m 582 1225 l 407 1044 l 296 1044 l 121 1225 l 257 1225 l 351 1128 l 446 1225 l 582 1225 m 39 779 l 39 910 l 653 910 l 653 779 l 418 779 l 418 0 l 274 0 l 274 779 l 39 779 z "},"ť":{"ha":694,"x_min":89,"x_max":693,"o":"m 569 817 l 569 954 l 693 954 l 693 857 q 673 764 693 803 q 599 671 653 725 l 561 706 q 605 769 593 747 q 619 817 617 792 l 569 817 m 194 503 l 89 503 l 89 632 l 194 632 l 194 818 l 338 832 l 338 632 l 585 632 l 585 503 l 338 503 l 338 253 q 353 147 338 176 q 425 118 369 118 q 572 140 481 118 l 596 13 q 415 -15 490 -15 q 238 44 282 -15 q 194 253 194 104 l 194 503 z "},"Ŧ":{"ha":694,"x_min":39,"x_max":653,"o":"m 117 631 l 579 631 l 579 517 l 117 517 l 117 631 m 39 779 l 39 910 l 653 910 l 653 779 l 418 779 l 418 0 l 274 0 l 274 779 l 39 779 z "},"ŧ":{"ha":694,"x_min":89,"x_max":596,"o":"m 89 836 l 194 836 l 194 985 l 338 999 l 338 836 l 585 836 l 585 725 l 338 725 l 338 632 l 585 632 l 585 518 l 338 518 l 338 253 q 353 147 338 176 q 425 118 369 118 q 572 140 481 118 l 596 13 q 415 -15 490 -15 q 238 44 282 -15 q 194 253 194 104 l 194 518 l 89 518 l 89 632 l 194 632 l 194 725 l 89 725 l 89 836 z "},"Ũ":{"ha":694,"x_min":36,"x_max":657,"o":"m 518 1208 l 575 1131 q 442 1057 507 1057 q 340 1086 393 1057 q 258 1117 289 1117 q 182 1074 228 1117 l 119 1150 q 267 1229 201 1229 q 367 1200 313 1229 q 450 1171 422 1171 q 518 1208 478 1171 m 36 306 l 36 910 l 182 910 l 182 322 q 217 167 182 215 q 344 118 250 118 q 475 165 439 118 q 511 322 511 213 l 511 910 l 657 910 l 657 306 q 587 65 657 143 q 342 -12 517 -12 q 101 67 167 -12 q 36 306 36 146 z "},"ũ":{"ha":694,"x_min":78,"x_max":617,"o":"m 478 0 l 475 40 q 449 28 471 39 q 422 16 428 18 q 400 6 417 14 q 372 -3 381 0 l 350 -8 q 293 -15 324 -14 q 129 50 181 -15 q 78 257 78 115 l 78 660 l 221 660 l 221 265 q 240 159 221 194 q 308 124 260 124 q 408 144 357 124 q 474 178 458 164 l 474 660 l 617 660 l 617 0 l 478 0 m 518 979 l 575 901 q 442 828 507 828 q 340 858 393 828 q 258 888 288 888 q 182 844 228 888 l 119 921 q 267 1000 201 1000 q 367 971 313 1000 q 449 942 421 942 q 518 979 478 942 z "},"Ū":{"ha":694,"x_min":36,"x_max":657,"o":"m 117 1185 l 579 1185 l 579 1071 l 117 1071 l 117 1185 m 36 306 l 36 910 l 182 910 l 182 322 q 217 167 182 215 q 344 118 250 118 q 475 165 439 118 q 511 322 511 213 l 511 910 l 657 910 l 657 306 q 587 65 657 143 q 342 -12 517 -12 q 101 67 167 -12 q 36 306 36 146 z "},"ū":{"ha":694,"x_min":78,"x_max":617,"o":"m 478 0 l 475 40 q 449 28 471 39 q 422 16 428 18 q 400 6 417 14 q 372 -3 381 0 l 350 -8 q 293 -15 324 -14 q 129 50 181 -15 q 78 257 78 115 l 78 660 l 221 660 l 221 265 q 240 159 221 194 q 308 124 260 124 q 408 144 357 124 q 474 178 458 164 l 474 660 l 617 660 l 617 0 l 478 0 m 117 956 l 579 956 l 579 842 l 117 842 l 117 956 z "},"Ŭ":{"ha":694,"x_min":36,"x_max":657,"o":"m 546 1215 q 347 1047 535 1047 q 149 1215 160 1047 l 251 1215 q 282 1157 258 1174 q 347 1140 306 1140 q 413 1157 389 1140 q 443 1215 436 1174 l 546 1215 m 36 306 l 36 910 l 182 910 l 182 322 q 217 167 182 215 q 344 118 250 118 q 475 165 439 118 q 511 322 511 213 l 511 910 l 657 910 l 657 306 q 587 65 657 143 q 342 -12 517 -12 q 101 67 167 -12 q 36 306 36 146 z "},"ŭ":{"ha":694,"x_min":78,"x_max":617,"o":"m 478 0 l 475 40 q 449 28 471 39 q 422 16 428 18 q 400 6 417 14 q 372 -3 381 0 l 350 -8 q 293 -15 324 -14 q 129 50 181 -15 q 78 257 78 115 l 78 660 l 221 660 l 221 265 q 240 159 221 194 q 308 124 260 124 q 408 144 357 124 q 474 178 458 164 l 474 660 l 617 660 l 617 0 l 478 0 m 546 972 q 347 804 535 804 q 149 972 160 804 l 251 972 q 282 914 258 931 q 347 897 306 897 q 413 914 389 897 q 443 972 436 931 l 546 972 z "},"Ů":{"ha":694,"x_min":36,"x_max":657,"o":"m 347 1290 q 384 1290 347 1290 q 467 1249 421 1290 q 513 1137 513 1207 q 467 1025 513 1067 q 347 983 421 983 q 226 1025 272 983 q 181 1137 181 1067 q 226 1249 181 1207 q 347 1290 272 1290 m 346 1199 q 311 1199 346 1199 q 276 1136 276 1199 q 346 1074 276 1074 q 415 1136 415 1074 q 346 1199 415 1199 m 36 306 l 36 910 l 182 910 l 182 322 q 217 167 182 215 q 345 118 251 118 q 475 165 439 118 q 511 322 511 213 l 511 910 l 657 910 l 657 306 q 587 65 657 143 q 342 -12 517 -12 q 102 67 168 -12 q 36 306 36 146 z "},"ů":{"ha":694,"x_min":78,"x_max":617,"o":"m 478 0 l 475 40 q 449 28 471 39 q 422 16 428 18 q 400 6 417 14 q 372 -3 381 0 l 350 -8 q 293 -15 324 -14 q 129 50 181 -15 q 78 257 78 115 l 78 660 l 221 660 l 221 265 q 240 159 221 194 q 308 124 260 124 q 408 144 357 124 q 474 178 458 164 l 474 660 l 617 660 l 617 0 l 478 0 m 347 1068 q 384 1068 347 1068 q 467 1026 421 1068 q 513 915 513 985 q 467 803 513 844 q 347 761 421 761 q 226 803 272 761 q 181 915 181 844 q 226 1026 181 985 q 347 1068 272 1068 m 346 976 q 311 976 346 976 q 276 914 276 976 q 346 851 276 851 q 415 914 415 851 q 346 976 415 976 z "},"Ű":{"ha":694,"x_min":36,"x_max":681,"o":"m 75 1051 l 313 1214 l 383 1099 l 139 956 l 75 1051 m 372 1051 l 610 1214 l 681 1099 l 436 956 l 372 1051 m 36 306 l 36 910 l 182 910 l 182 322 q 217 167 182 215 q 344 118 250 118 q 475 165 439 118 q 511 322 511 213 l 511 910 l 657 910 l 657 306 q 587 65 657 143 q 342 -12 517 -12 q 101 67 167 -12 q 36 306 36 146 z "},"ű":{"ha":694,"x_min":61,"x_max":667,"o":"m 478 0 l 475 40 q 449 28 471 39 q 422 16 428 18 q 400 6 417 14 q 372 -3 381 0 l 350 -8 q 293 -15 324 -14 q 129 50 181 -15 q 78 257 78 115 l 78 660 l 221 660 l 221 265 q 240 159 221 194 q 308 124 260 124 q 408 144 357 124 q 474 178 458 164 l 474 660 l 617 660 l 617 0 l 478 0 m 61 843 l 299 1006 l 369 890 l 125 747 l 61 843 m 358 843 l 596 1006 l 667 890 l 422 747 l 358 843 z "},"Ų":{"ha":694,"x_min":36,"x_max":657,"o":"m 385 -12 l 347 -12 q 107 63 178 -12 q 36 282 36 139 l 36 910 l 179 910 l 179 301 q 347 124 179 124 q 465 153 428 124 q 515 306 515 192 l 515 910 l 657 910 l 657 314 q 600 81 656 150 q 539 16 575 50 q 497 -24 503 -18 q 397 -199 393 -122 q 415 -244 399 -222 q 470 -265 431 -265 q 535 -260 510 -265 l 549 -364 q 446 -374 489 -374 q 322 -320 368 -374 q 276 -201 276 -267 q 301 -96 276 -136 q 385 -12 325 -56 z "},"ų":{"ha":694,"x_min":78,"x_max":617,"o":"m 517 -375 q 395 -328 447 -375 q 343 -185 343 -282 q 476 7 343 -89 l 475 47 l 439 31 q 339 -8 365 -4 q 293 -12 313 -12 q 128 51 179 -12 q 78 257 78 115 l 78 660 l 221 660 l 221 265 q 240 160 221 194 q 308 126 260 126 q 407 148 357 126 q 474 185 457 169 l 474 660 l 617 660 l 617 -4 q 494 -112 525 -74 q 464 -185 464 -150 q 481 -244 464 -221 q 534 -267 497 -267 q 601 -261 571 -267 l 615 -365 q 517 -375 554 -375 z "},"Ŵ":{"ha":694,"x_min":0,"x_max":693,"o":"m 121 1044 l 296 1225 l 407 1225 l 582 1044 l 446 1044 l 351 1142 l 257 1044 l 121 1044 m 79 0 l 0 910 l 139 910 l 200 128 l 208 128 l 294 532 l 418 532 l 500 128 l 510 128 l 558 910 l 693 910 l 631 0 l 419 0 l 356 358 l 351 358 l 285 0 l 79 0 z "},"ŵ":{"ha":694,"x_min":-3,"x_max":696,"o":"m 557 660 l 696 660 l 624 0 l 389 0 l 353 301 l 340 301 l 314 0 l 74 0 l -3 660 l 142 660 l 196 128 l 211 128 l 243 443 l 451 443 l 489 128 l 506 128 l 557 660 m 413 1035 l 563 817 l 421 817 l 347 936 l 274 817 l 132 817 l 282 1035 l 413 1035 z "},"Ŷ":{"ha":694,"x_min":0,"x_max":694,"o":"m 121 1044 l 296 1225 l 407 1225 l 582 1044 l 446 1044 l 351 1142 l 257 1044 l 121 1044 m 419 393 l 419 0 l 275 0 l 275 393 l 0 910 l 161 910 l 342 528 l 353 528 l 533 910 l 694 910 l 419 393 z "},"ŷ":{"ha":694,"x_min":40,"x_max":653,"o":"m 40 660 l 196 660 l 356 124 l 367 124 l 501 660 l 653 660 l 469 17 q 415 -141 440 -86 q 346 -231 390 -196 q 247 -275 301 -265 q 94 -286 193 -285 l 94 -157 q 219 -139 179 -157 q 275 -82 260 -121 l 283 -61 l 40 660 m 413 1035 l 563 817 l 421 817 l 347 936 l 274 817 l 132 817 l 282 1035 l 413 1035 z "},"Ÿ":{"ha":694,"x_min":-1,"x_max":693,"o":"m 418 393 l 418 0 l 276 0 l 276 393 l -1 910 l 164 910 l 349 528 l 536 910 l 693 910 l 418 393 m 425 1072 q 414 1084 425 1072 q 403 1128 403 1096 q 425 1183 403 1160 q 481 1207 447 1207 q 536 1183 514 1207 q 558 1128 558 1160 q 536 1072 558 1096 q 481 1049 514 1049 q 425 1072 447 1049 m 157 1072 q 146 1084 157 1072 q 135 1128 135 1096 q 158 1183 135 1160 q 213 1207 181 1207 q 267 1183 244 1207 q 290 1128 290 1160 q 268 1072 290 1096 q 213 1049 246 1049 q 157 1072 179 1049 z "},"Ź":{"ha":694,"x_min":85,"x_max":628,"o":"m 89 779 l 89 910 l 607 910 l 607 796 l 267 131 l 628 131 l 628 0 l 85 0 l 85 99 l 433 779 l 89 779 m 206 1082 l 457 1222 l 517 1101 l 261 981 l 206 1082 z "},"ź":{"ha":694,"x_min":96,"x_max":593,"o":"m 113 532 l 113 660 l 583 660 l 592 544 l 296 128 l 593 128 l 593 0 l 107 0 l 96 100 l 399 532 l 113 532 m 192 881 l 443 1021 l 503 900 l 247 779 l 192 881 z "},"Ż":{"ha":694,"x_min":85,"x_max":628,"o":"m 89 779 l 89 910 l 607 910 l 607 796 l 267 131 l 628 131 l 628 0 l 85 0 l 85 99 l 433 779 l 89 779 m 292 1072 q 281 1084 292 1072 q 269 1128 269 1096 q 292 1183 269 1160 q 347 1207 314 1207 q 403 1183 381 1207 q 425 1128 425 1160 q 403 1072 425 1096 q 347 1049 381 1049 q 292 1072 314 1049 z "},"ż":{"ha":694,"x_min":96,"x_max":593,"o":"m 113 532 l 113 660 l 583 660 l 592 544 l 296 128 l 593 128 l 593 0 l 107 0 l 96 100 l 399 532 l 113 532 m 292 843 q 281 855 292 843 q 269 899 269 867 q 292 954 269 931 q 347 978 314 978 q 403 954 381 978 q 425 899 425 931 q 403 843 425 867 q 347 819 381 819 q 292 843 314 819 z "},"Ž":{"ha":694,"x_min":85,"x_max":628,"o":"m 582 1225 l 407 1044 l 296 1044 l 121 1225 l 257 1225 l 351 1128 l 446 1225 l 582 1225 m 89 779 l 89 910 l 607 910 l 607 796 l 267 131 l 628 131 l 628 0 l 85 0 l 85 99 l 433 779 l 89 779 z "},"ž":{"ha":694,"x_min":96,"x_max":593,"o":"m 113 532 l 113 660 l 583 660 l 592 544 l 296 128 l 593 128 l 593 0 l 107 0 l 96 100 l 399 532 l 113 532 m 583 1003 l 408 822 l 297 822 l 122 1003 l 258 1003 l 353 906 l 447 1003 l 583 1003 z "},"ƒ":{"ha":694,"x_min":33,"x_max":642,"o":"m 149 8 q 211 493 149 8 l 119 493 l 142 632 l 233 632 q 306 846 247 775 q 492 917 364 917 q 642 897 582 917 l 604 771 q 488 786 538 786 q 409 753 438 786 q 369 632 381 719 l 572 632 l 551 493 l 356 493 l 292 8 q 203 -198 272 -129 q 33 -267 135 -267 l 44 -132 q 149 8 121 -132 z "},"Ǻ":{"ha":694,"x_min":0,"x_max":694,"o":"m 436 1019 l 507 1289 l 631 1254 l 538 989 l 436 1019 m 249 1290 q 286 1290 249 1290 q 369 1249 324 1290 q 415 1137 415 1207 q 369 1025 415 1067 q 249 983 324 983 q 129 1025 175 983 q 83 1137 83 1067 q 129 1249 83 1207 q 249 1290 175 1290 m 249 1199 q 214 1199 249 1199 q 179 1136 179 1199 q 249 1074 179 1074 q 318 1136 318 1074 q 249 1199 318 1199 m 0 0 l 221 910 l 481 910 l 694 0 l 542 0 l 499 174 l 190 174 l 150 0 l 0 0 m 468 303 l 365 781 l 335 781 l 219 303 l 468 303 z "},"ǻ":{"ha":694,"x_min":56,"x_max":619,"o":"m 192 1138 l 443 1278 l 501 1169 l 246 1049 l 192 1138 m 300 119 q 386 138 339 119 q 461 178 433 156 l 461 275 q 325 282 378 282 q 210 196 210 282 q 300 119 210 119 m 278 -15 q 56 196 56 -15 q 127 353 56 308 q 325 399 199 399 q 461 392 385 399 q 438 506 461 475 q 356 536 414 536 q 219 522 297 536 q 100 494 142 508 l 74 626 q 358 671 219 671 q 550 610 496 671 q 604 403 604 549 l 604 121 l 619 -1 l 476 -15 l 463 49 q 278 -15 346 -15 m 347 1019 q 384 1019 347 1019 q 467 978 421 1019 q 513 866 513 936 q 467 754 513 796 q 347 713 421 713 q 226 754 272 713 q 181 866 181 796 q 226 978 181 936 q 347 1019 272 1019 m 346 928 q 311 928 346 928 q 276 865 276 928 q 346 803 276 803 q 415 865 415 803 q 346 928 415 928 z "},"Ǽ":{"ha":694,"x_min":8,"x_max":668,"o":"m 668 0 l 346 0 l 346 175 l 188 175 l 139 0 l 8 0 l 272 910 l 664 910 l 664 804 l 485 804 l 485 531 l 626 531 l 626 394 l 485 394 l 485 106 l 668 106 l 668 0 m 231 1128 l 515 1250 l 563 1136 l 276 1019 l 231 1128 m 228 293 l 360 293 l 360 782 l 228 293 z "},"ǽ":{"ha":694,"x_min":26,"x_max":674,"o":"m 192 881 l 443 1021 l 503 900 l 247 779 l 192 881 m 354 63 q 281 3 314 19 q 181 -14 249 -14 q 70 40 114 -14 q 26 184 26 93 q 78 334 26 275 q 217 393 131 393 l 283 393 q 272 530 283 499 q 222 561 261 561 q 82 524 164 561 l 47 611 q 213 660 147 660 q 309 647 278 660 q 360 590 340 633 q 497 667 403 667 q 632 597 590 667 q 674 374 674 526 l 669 279 l 415 279 q 438 136 417 185 q 515 86 460 88 q 617 107 550 86 l 639 114 l 668 21 q 519 -14 578 -14 q 428 1 461 -14 q 354 63 394 15 m 286 142 l 286 279 l 217 279 q 155 255 178 279 q 132 186 132 231 q 194 85 132 85 q 249 99 226 85 q 279 128 272 114 l 286 142 m 561 392 q 547 526 561 489 q 494 563 533 563 q 434 526 454 563 q 413 392 414 490 l 561 392 z "},"Ǿ":{"ha":694,"x_min":35,"x_max":660,"o":"m 204 1128 l 489 1250 l 536 1136 l 250 1019 l 204 1128 m 100 115 q 35 465 35 228 q 109 813 35 701 q 347 924 183 924 q 533 872 464 924 l 563 924 l 647 876 l 600 794 q 660 448 660 685 q 589 99 660 211 q 347 -14 518 -14 q 167 38 235 -14 l 138 -14 l 53 32 l 100 115 m 343 793 q 300 793 343 793 q 219 721 257 793 q 182 497 182 649 q 193 278 182 344 l 463 750 q 343 793 429 793 m 513 464 q 504 628 513 561 l 238 161 q 347 117 274 117 q 478 188 443 117 q 513 464 513 260 z "},"ǿ":{"ha":694,"x_min":58,"x_max":636,"o":"m 604 669 l 560 592 q 636 331 636 510 q 565 67 636 153 q 347 -18 494 -18 q 225 0 282 -18 l 185 -69 l 94 -15 l 136 58 q 58 322 58 142 q 129 587 58 503 q 347 671 200 671 q 471 651 417 671 l 513 724 l 604 669 m 190 328 q 211 193 190 247 l 408 540 q 347 553 381 553 q 190 328 190 553 m 347 100 q 465 160 425 100 q 504 313 504 219 q 483 457 504 406 l 288 111 q 347 100 314 100 m 192 881 l 443 1021 l 503 900 l 247 779 l 192 881 z "},"Ș":{"ha":694,"x_min":58,"x_max":636,"o":"m 251 -222 l 251 -82 l 390 -82 l 390 -178 q 367 -270 390 -232 q 290 -349 344 -308 l 247 -300 q 282 -261 269 -281 q 296 -222 294 -242 l 251 -222 m 58 667 q 367 924 58 924 q 614 875 475 924 l 582 749 q 359 794 440 793 q 242 767 278 794 q 206 669 206 739 q 246 590 206 622 q 382 532 286 557 q 582 432 528 493 q 636 250 636 371 q 322 -12 636 -12 q 60 32 218 -12 l 89 164 q 132 151 89 163 q 341 117 267 117 q 452 154 415 117 q 489 249 489 192 q 458 336 489 306 q 343 390 426 367 q 126 493 193 432 q 58 667 58 554 z "},"ș":{"ha":694,"x_min":88,"x_max":606,"o":"m 88 31 l 118 157 q 328 115 250 115 q 434 131 407 115 q 461 181 461 146 q 436 232 461 217 q 342 264 411 247 q 150 338 204 297 q 96 472 96 379 q 351 671 96 671 q 606 635 461 671 l 579 503 q 367 542 443 542 q 266 528 292 542 q 240 483 240 515 q 266 437 240 451 q 399 393 292 422 q 556 326 506 364 q 606 196 606 288 q 347 -14 606 -14 q 88 31 226 -14 m 251 -222 l 251 -82 l 390 -82 l 390 -178 q 367 -270 390 -232 q 290 -349 344 -308 l 247 -300 q 282 -261 269 -281 q 296 -222 294 -242 l 251 -222 z "},"Δ":{"ha":694,"x_min":3,"x_max":690,"o":"m 690 0 l 3 0 l 267 908 l 442 908 l 690 0 m 179 129 l 515 129 l 353 767 l 179 129 z "},"Ω":{"ha":694,"x_min":35,"x_max":660,"o":"m 164 110 l 164 117 q 35 481 35 206 q 102 817 35 711 q 347 924 169 924 q 592 817 525 924 q 660 481 660 710 q 531 117 660 203 l 531 110 l 628 131 l 628 0 l 388 0 l 388 131 q 497 267 475 153 q 515 440 515 357 q 514 552 515 524 q 508 622 513 581 q 493 691 504 664 q 464 744 482 718 q 416 784 446 771 q 347 797 386 797 q 278 784 308 797 q 231 744 249 771 q 201 691 213 718 q 186 622 190 664 q 179 483 179 553 q 183 368 179 414 q 197 267 186 322 q 307 131 219 156 l 307 0 l 75 0 l 75 131 l 164 110 z "},"π":{"ha":694,"x_min":29,"x_max":679,"o":"m 29 660 l 679 660 l 679 532 l 583 532 l 583 0 l 440 0 l 440 532 l 267 532 l 267 0 l 124 0 l 124 532 l 29 532 l 29 660 z "},"Ẁ":{"ha":694,"x_min":0,"x_max":693,"o":"m 233 1251 l 515 1129 l 471 1021 l 183 1138 l 233 1251 m 79 0 l 0 910 l 139 910 l 200 128 l 208 128 l 294 532 l 418 532 l 500 128 l 510 128 l 558 910 l 693 910 l 631 0 l 419 0 l 356 358 l 351 358 l 285 0 l 79 0 z "},"ẁ":{"ha":694,"x_min":-3,"x_max":696,"o":"m 557 660 l 696 660 l 624 0 l 389 0 l 353 301 l 340 301 l 314 0 l 74 0 l -3 660 l 142 660 l 196 128 l 211 128 l 243 443 l 451 443 l 489 128 l 506 128 l 557 660 m 251 1021 l 503 881 l 447 779 l 192 900 l 251 1021 z "},"Ẃ":{"ha":694,"x_min":0,"x_max":693,"o":"m 204 1128 l 489 1250 l 536 1136 l 250 1019 l 204 1128 m 79 0 l 0 910 l 139 910 l 200 128 l 208 128 l 294 532 l 418 532 l 500 128 l 510 128 l 558 910 l 693 910 l 631 0 l 419 0 l 356 358 l 351 358 l 285 0 l 79 0 z "},"ẃ":{"ha":694,"x_min":-3,"x_max":696,"o":"m 557 660 l 696 660 l 624 0 l 389 0 l 353 301 l 340 301 l 314 0 l 74 0 l -3 660 l 142 660 l 196 128 l 211 128 l 243 443 l 451 443 l 489 128 l 506 128 l 557 660 m 192 881 l 443 1021 l 503 900 l 247 779 l 192 881 z "},"Ẅ":{"ha":694,"x_min":0,"x_max":693,"o":"m 157 1072 q 146 1084 157 1072 q 135 1128 135 1096 q 158 1183 135 1160 q 213 1207 181 1207 q 267 1183 244 1207 q 290 1128 290 1160 q 268 1072 290 1096 q 213 1049 246 1049 q 157 1072 179 1049 m 425 1072 q 414 1084 425 1072 q 403 1128 403 1096 q 425 1183 403 1160 q 481 1207 447 1207 q 536 1183 514 1207 q 558 1128 558 1160 q 536 1072 558 1096 q 481 1049 514 1049 q 425 1072 447 1049 m 79 0 l 0 910 l 139 910 l 200 128 l 208 128 l 294 532 l 418 532 l 500 128 l 510 128 l 558 910 l 693 910 l 631 0 l 419 0 l 356 358 l 351 358 l 285 0 l 79 0 z "},"ẅ":{"ha":694,"x_min":-3,"x_max":696,"o":"m 557 660 l 696 660 l 624 0 l 389 0 l 353 301 l 340 301 l 314 0 l 74 0 l -3 660 l 142 660 l 196 128 l 211 128 l 243 443 l 451 443 l 489 128 l 506 128 l 557 660 m 157 843 q 146 855 157 843 q 135 899 135 867 q 158 954 135 931 q 213 978 181 978 q 267 954 244 978 q 290 899 290 931 q 268 843 290 867 q 213 819 246 819 q 157 843 179 819 m 425 843 q 414 855 425 843 q 403 899 403 867 q 425 954 403 931 q 481 978 447 978 q 536 954 514 978 q 558 899 558 931 q 536 843 558 867 q 481 819 514 819 q 425 843 447 819 z "},"Ỳ":{"ha":694,"x_min":0,"x_max":694,"o":"m 233 1251 l 515 1129 l 471 1021 l 183 1138 l 233 1251 m 419 393 l 419 0 l 275 0 l 275 393 l 0 910 l 161 910 l 342 528 l 353 528 l 533 910 l 694 910 l 419 393 z "},"ỳ":{"ha":694,"x_min":40,"x_max":653,"o":"m 40 660 l 196 660 l 356 124 l 367 124 l 501 660 l 653 660 l 469 17 q 415 -141 440 -86 q 346 -231 390 -196 q 247 -275 301 -265 q 94 -286 193 -285 l 94 -157 q 219 -139 179 -157 q 275 -82 260 -121 l 283 -61 l 40 660 m 251 1021 l 503 881 l 447 779 l 192 900 l 251 1021 z "},"–":{"ha":694,"x_min":97,"x_max":596,"o":"m 97 303 l 97 438 l 596 438 l 596 303 l 97 303 z "},"—":{"ha":694,"x_min":1,"x_max":694,"o":"m 1 303 l 1 438 l 694 438 l 694 303 l 1 303 z "},"‘":{"ha":694,"x_min":233,"x_max":458,"o":"m 458 911 l 378 624 l 233 663 l 344 942 l 458 911 z "},"’":{"ha":694,"x_min":235,"x_max":460,"o":"m 235 663 l 315 950 l 460 911 l 349 632 l 235 663 z "},"“":{"ha":694,"x_min":117,"x_max":540,"o":"m 540 903 l 460 615 l 315 656 l 426 935 l 540 903 m 342 929 l 261 642 l 117 681 l 228 960 l 342 929 z "},"”":{"ha":694,"x_min":135,"x_max":558,"o":"m 135 669 l 215 957 l 360 917 l 249 638 l 135 669 m 333 643 l 414 931 l 558 892 l 447 613 l 333 643 z "},"†":{"ha":694,"x_min":36,"x_max":660,"o":"m 36 671 l 36 789 l 290 785 l 283 1053 l 413 1053 l 406 785 l 660 789 l 660 671 l 406 672 l 413 -162 l 283 -162 l 290 674 l 36 671 z "},"‡":{"ha":694,"x_min":36,"x_max":660,"o":"m 36 99 l 36 219 l 290 218 l 290 674 l 36 671 l 36 789 l 290 786 l 283 1053 l 414 1053 l 404 785 l 660 789 l 660 669 l 407 672 l 407 217 l 660 221 l 660 101 l 404 106 l 413 -162 l 282 -162 l 290 107 l 36 99 z "},"•":{"ha":694,"x_min":265,"x_max":426,"o":"m 426 499 l 426 332 l 265 332 l 265 499 l 426 499 z "},"…":{"ha":694,"x_min":72,"x_max":622,"o":"m 72 0 l 72 201 l 196 201 l 196 0 l 72 0 m 285 0 l 285 201 l 408 201 l 408 0 l 285 0 m 499 0 l 499 201 l 622 201 l 622 0 l 499 0 z "},"‰":{"ha":694,"x_min":0,"x_max":694,"o":"m 694 522 l 0 351 l 0 471 l 694 640 l 694 522 m 49 597 q 24 622 49 597 q 0 729 0 646 q 49 861 0 813 q 171 910 97 910 q 293 861 244 910 q 342 729 342 813 q 293 597 342 646 q 171 549 244 549 q 49 597 97 549 m 239 728 q 239 767 239 728 q 171 806 239 806 q 103 728 103 806 q 171 651 103 651 q 239 728 239 651 m 408 49 q 385 73 408 49 q 361 181 361 97 q 408 313 361 264 q 528 361 456 361 q 647 313 600 361 q 694 181 694 264 q 647 49 694 97 q 528 0 600 0 q 408 49 456 0 m 481 235 q 472 225 481 235 q 463 178 463 215 q 481 119 463 140 q 526 99 499 99 q 590 177 590 99 q 526 256 590 256 q 481 235 499 256 m 286 313 q 310 288 286 313 q 333 181 333 264 q 286 49 333 97 q 167 0 239 0 q 47 49 94 0 q 0 181 0 97 q 47 313 0 264 q 167 361 94 361 q 286 313 239 361 m 214 119 q 223 130 214 119 q 232 178 232 140 q 214 235 232 215 q 168 256 196 256 q 104 177 104 256 q 168 99 104 99 q 214 119 196 99 z "},"‹":{"ha":694,"x_min":183,"x_max":503,"o":"m 183 371 l 503 599 l 503 440 l 300 315 l 503 188 l 503 29 l 183 260 l 183 371 z "},"›":{"ha":694,"x_min":183,"x_max":503,"o":"m 183 599 l 503 371 l 503 260 l 183 29 l 183 188 l 386 315 l 183 440 l 183 599 z "},"⁄":{"ha":694,"x_min":94,"x_max":596,"o":"m 465 924 l 596 924 l 225 0 l 94 0 l 465 924 z "},"€":{"ha":694,"x_min":0,"x_max":646,"o":"m 200 442 l 201 410 l 506 410 l 506 300 l 217 300 q 280 165 236 207 q 413 122 324 122 q 611 156 503 122 l 646 26 q 524 -1 600 11 q 396 -12 449 -12 q 174 56 258 -17 q 67 300 90 129 l 0 300 l 0 410 l 57 410 l 57 486 l 0 486 l 0 596 l 67 596 q 168 842 89 760 q 397 924 247 924 q 626 885 513 924 l 594 767 q 403 799 490 799 q 272 751 317 799 q 210 596 226 704 l 506 596 l 506 486 l 200 486 l 200 442 z "},"™":{"ha":694,"x_min":19,"x_max":661,"o":"m 19 736 l 19 819 l 269 819 l 269 736 l 194 736 l 194 407 l 100 407 l 100 736 l 19 736 m 392 632 l 397 407 l 311 407 l 311 819 l 406 819 l 475 622 l 493 622 l 567 819 l 661 819 l 661 407 l 576 407 l 582 632 l 572 632 l 522 501 l 444 501 l 401 632 l 392 632 z "},"∂":{"ha":694,"x_min":58,"x_max":646,"o":"m 353 -15 q 286 -15 353 -15 q 138 65 218 -15 q 58 277 58 146 q 133 484 58 408 q 340 560 207 560 q 415 544 376 560 q 478 504 454 529 q 394 658 451 603 q 181 779 338 714 l 238 900 q 552 678 458 819 q 646 283 646 536 q 567 63 646 142 q 353 -15 489 -15 m 349 438 q 313 438 349 438 q 240 394 278 438 q 201 273 201 351 q 242 151 201 194 q 350 108 283 108 q 503 275 503 108 q 461 392 503 347 q 349 438 419 438 z "},"∏":{"ha":694,"x_min":22,"x_max":672,"o":"m 22 783 l 22 910 l 672 910 l 672 783 l 578 783 l 578 -167 l 432 -167 l 432 783 l 271 783 l 271 -167 l 125 -167 l 125 783 l 22 783 z "},"∑":{"ha":694,"x_min":51,"x_max":638,"o":"m 638 910 l 638 779 l 218 779 l 451 388 l 214 -37 l 636 -37 l 636 -167 l 51 -167 l 51 -33 l 289 386 l 51 778 l 51 910 l 638 910 z "},"−":{"ha":694,"x_min":76,"x_max":618,"o":"m 76 328 l 76 458 l 618 458 l 618 328 l 76 328 z "},"√":{"ha":694,"x_min":1,"x_max":679,"o":"m 1 422 l 1 547 l 244 547 l 338 115 l 368 115 l 524 910 l 679 910 l 485 0 l 215 0 l 119 422 l 1 422 z "},"∞":{"ha":694,"x_min":7,"x_max":688,"o":"m 171 168 q 134 168 171 168 q 52 231 97 168 q 7 403 7 293 q 53 577 7 514 q 178 640 99 640 q 294 617 257 640 q 358 526 332 593 q 416 613 378 588 q 524 639 454 639 q 688 400 688 639 q 645 228 688 288 q 527 168 603 168 q 412 194 451 168 q 350 285 372 221 q 283 194 322 219 q 171 168 244 168 m 184 546 q 166 546 184 546 q 129 514 147 546 q 111 404 111 482 q 129 294 111 326 q 185 263 147 263 q 244 289 224 263 q 303 403 265 315 q 242 521 264 496 q 184 546 221 546 m 583 400 q 566 515 583 483 q 514 546 549 546 q 458 521 479 546 q 401 411 436 496 q 453 289 432 315 q 517 263 474 263 q 583 400 583 263 z "},"∫":{"ha":694,"x_min":56,"x_max":647,"o":"m 279 810 q 328 1022 279 960 q 500 1083 378 1083 q 647 1067 578 1083 l 625 940 q 514 953 569 953 q 440 924 458 953 q 422 810 422 894 l 422 -4 q 373 -216 422 -154 q 201 -278 324 -278 q 56 -257 143 -278 l 78 -131 q 197 -147 150 -147 q 262 -118 244 -147 q 279 -4 279 -89 l 279 810 z "},"≈":{"ha":694,"x_min":43,"x_max":650,"o":"m 554 567 l 646 497 q 463 374 553 374 q 331 421 408 375 q 236 467 254 467 q 125 393 185 467 l 43 465 q 235 590 140 590 q 361 546 290 590 q 458 501 433 501 q 504 517 483 501 q 554 567 525 532 m 558 300 l 650 231 q 467 107 557 107 q 335 154 413 108 q 240 200 258 200 q 129 126 189 200 l 47 199 q 239 324 144 324 q 365 279 294 324 q 461 235 436 235 q 508 250 486 235 q 558 300 529 265 z "},"≠":{"ha":694,"x_min":49,"x_max":644,"o":"m 49 524 l 379 524 l 533 708 l 640 632 l 547 524 l 644 524 l 644 404 l 463 404 l 392 315 l 644 315 l 644 194 l 292 194 q 163 29 178 49 l 56 106 l 132 194 l 49 194 l 49 315 l 232 315 l 290 404 l 49 404 l 49 524 z "},"≤":{"ha":694,"x_min":61,"x_max":619,"o":"m 619 599 l 186 472 l 604 358 l 571 228 l 61 381 l 61 557 l 583 724 l 619 599 m 525 33 l 106 33 l 92 136 l 163 143 l 582 143 l 596 39 l 525 33 z "},"≥":{"ha":694,"x_min":71,"x_max":629,"o":"m 504 472 l 71 599 l 107 724 l 629 557 l 629 381 l 119 228 l 86 358 l 504 472 m 582 33 l 163 33 l 92 39 l 106 143 l 525 143 l 596 136 l 582 33 z "},"◊":{"ha":694,"x_min":47,"x_max":653,"o":"m 653 481 l 350 3 l 47 481 l 350 958 l 653 481 m 514 481 l 350 742 l 185 481 l 350 218 l 514 481 z "},"ﬁ":{"ha":694,"x_min":8,"x_max":629,"o":"m 558 786 q 346 814 415 814 q 246 784 276 814 q 215 660 215 754 l 629 660 l 629 0 l 492 0 l 492 535 l 214 535 l 214 0 l 76 0 l 76 535 l 8 535 l 8 660 l 78 660 q 135 874 78 801 q 319 944 193 946 q 536 919 407 944 l 579 911 l 558 786 z "},"ﬂ":{"ha":694,"x_min":1,"x_max":665,"o":"m 458 660 l 458 535 l 272 535 l 272 0 l 133 0 l 133 535 l 1 535 l 1 660 l 133 660 q 188 878 133 813 q 374 944 242 943 q 614 922 456 947 l 665 915 l 665 0 l 528 0 l 528 801 l 500 806 q 374 813 425 814 q 297 783 322 813 q 272 660 272 753 l 458 660 z "},"ﬃ":{"ha":1389,"x_min":140,"x_max":1210,"o":"m 1122 788 q 910 814 974 814 q 822 785 847 814 q 796 660 796 756 l 1210 660 l 1210 0 l 1072 0 l 1072 535 l 796 535 l 796 0 l 657 0 l 657 535 l 442 535 l 442 0 l 303 0 l 303 535 l 140 535 l 140 660 l 303 660 q 369 870 303 796 q 551 944 436 944 q 746 911 629 944 q 853 944 794 944 q 1099 917 949 944 l 1146 907 l 1122 788 m 674 803 q 560 821 611 821 q 475 788 510 821 q 442 660 440 754 l 657 660 q 674 803 657 742 z "},"ﬄ":{"ha":1389,"x_min":140,"x_max":1210,"o":"m 982 660 l 982 535 l 796 535 l 796 0 l 657 0 l 657 535 l 428 535 l 428 0 l 289 0 l 289 535 l 140 535 l 140 660 l 289 660 q 356 869 289 794 q 538 944 424 944 q 746 907 607 944 q 903 944 800 943 q 1157 922 1008 944 l 1210 915 l 1210 0 l 1072 0 l 1072 801 q 911 814 972 814 q 823 785 850 814 q 796 660 796 757 l 982 660 m 657 660 q 672 801 657 746 q 560 821 594 821 q 463 788 497 821 q 428 660 428 754 l 657 660 z "}}}
